<?xml version="1.0" encoding="UTF-8"?>
<svg width="160px" height="40px" viewBox="0 0 197 40" version="1.1" xmlns="http://www.w3.org/2000/svg" xmlns:xlink="http://www.w3.org/1999/xlink">
    <!-- Generator: Sketch 52.5 (67469) - http://www.bohemiancoding.com/sketch -->
    <title>logo</title>
    <desc>Created with Sketch.</desc>
    <g id="Symbols" stroke="none" stroke-width="1" fill="none" fill-rule="evenodd">
        <g id="header/1600-big" transform="translate(-702.000000, -55.000000)" fill="#000000">
            <g id="logo" transform="translate(702.000000, 55.000000)">
                <path d="M46.225721,37.8503124 C43.4045334,37.5419959 42.3619488,36.4422799 42.3084393,34.5660122 L42.0270492,4.04893306 C42.0669586,2.18629615 43.4045334,1.93169168 46.225721,1.60966329 C47.4961054,1.47603245 47.6567957,0.0280811359 46.225721,0.00179310345 C44.47448,-0.0245760649 42.709477,0.256397566 40.944555,0.270109533 C39.82118,0.283740365 38.711324,0.216397566 37.587949,0.150109533 C36.1306457,0.0827667343 35.2077085,0.886742394 34.6596615,2.40098174 L26.1951273,25.4129899 C25.8465467,26.3789939 25.1650903,26.5127059 24.6433527,25.4004138 L13.6914783,2.24000811 C13.2903597,1.39603245 12.8609887,0.552137931 11.5915757,0.538425963 C10.6151291,0.538425963 9.63868247,0.552137931 8.6623168,0.538425963 C6.89739481,0.498425963 4.3428641,0.243821501 2.59162305,0.270109533 C1.16160071,0.296397566 1.32115769,1.63708722 2.59162305,1.77071805 C5.413863,2.09274645 7.80762245,2.54832454 7.820251,5.16227992 C6.3492668,14.450069 5.8946387,24.1407789 6.08155755,34.5670669 C6.06795757,37.1821582 3.83577891,37.6503935 1.01353896,37.9587099 C-0.25684545,38.1071075 -0.416483381,39.4330304 1.01353896,39.4593185 C2.76591335,39.4856065 5.31931072,39.1919757 7.08423271,39.1919757 L7.08423271,39.1920568 L8.79459286,39.1920568 C10.5469672,39.1920568 13.1003646,39.4856065 14.866339,39.4593185 C16.2837328,39.4319757 16.1231234,38.1071075 14.866339,37.9587099 C12.0452324,37.6503935 9.63771104,37.1810223 9.6240301,34.5670669 C9.169402,29.5149777 9.08958303,22.1035375 9.38360178,11.55514 C9.42351126,10.2008195 10.0387487,10.0271886 10.6676671,11.4877972 L22.0216316,37.5009412 C22.6106406,38.8679189 23.1314067,39.5382637 23.867425,37.5956268 L33.8701337,11.2856876 C34.5115997,9.58305071 35.1804276,9.83773631 35.2066562,11.7013469 L35.5541844,34.5660122 C35.5017273,36.4422799 34.4580903,37.5419959 31.6369027,37.8503124 C30.3665183,37.9955456 30.205828,39.4308398 31.6369027,39.4572089 C33.3882247,39.483497 34.6586091,39.1899473 36.3836216,39.1899473 L41.4790021,39.1899473 C43.2040146,39.1899473 44.47448,39.483497 46.225721,39.4572089 C47.6567957,39.4308398 47.4961054,37.9966004 46.225721,37.8503124" id="Fill-1"></path>
                <path d="M137.382906,37.8503124 C134.561718,37.5419959 133.505615,36.4422799 133.464653,34.5660122 L133.171686,4.04893306 C133.225277,2.18629615 134.561718,1.93169168 137.384039,1.60966329 C138.640743,1.47603245 138.812928,0.0280811359 137.384039,0.00179310345 C135.619036,-0.0245760649 133.853062,0.256397566 132.101821,0.270109533 C130.978365,0.283740365 129.853856,0.216397566 128.732586,0.150109533 C127.286778,0.0827667343 126.363922,0.886742394 125.802113,2.40098174 L117.351341,25.4129899 C116.990132,26.3789939 116.309808,26.5127059 115.786938,25.4004138 L104.836115,2.24000811 C104.446573,1.39603245 104.020278,0.552137931 102.748841,0.538425963 C101.759766,0.538425963 100.784372,0.552137931 99.8079254,0.538425963 C98.055632,0.498425963 95.5011822,0.243821501 93.7361793,0.270109533 C92.3051046,0.296397566 92.4794758,1.63708722 93.7361793,1.77071805 C96.5573669,2.09274645 98.9648882,2.54832454 98.9774358,5.16227992 C97.5075849,14.450069 97.0529568,24.1407789 97.2397947,34.5670669 C97.2261948,37.1821582 94.9804161,37.6503935 92.1581762,37.9587099 C91.982024,37.9795619 91.8280527,38.0241055 91.6958576,38.0843083 C89.5219646,37.6967221 89.0007127,36.7821582 87.5573333,35.1711237 L81.6336489,26.6989939 C81.380592,26.3369655 81.380592,25.6813874 81.6871584,25.346783 L81.9013581,25.0920974 C83.225333,23.444146 84.6301791,22.0087708 86.0874824,20.3608195 C87.4523381,18.8181826 88.9632318,17.6796024 91.2226914,17.371286 C92.278876,17.2239432 92.1854571,16.0316511 91.2226914,16.0716511 C88.3879038,16.1652819 85.7934637,16.1527059 82.9586761,16.0716511 C82.2488864,16.0453631 82.1155579,16.9166815 82.8368429,17.1144909 C85.7252209,17.9321785 83.5591802,20.4650791 81.7669773,22.7180609 L80.6299213,24.0976957 C80.4430025,24.3260122 79.9485459,24.2870669 79.7741746,24.0587505 L77.6082149,20.9490548 C75.9503928,18.603497 75.5355933,17.7048357 77.6481244,17.1155456 C78.3567808,16.914572 78.2895904,16.0432535 77.580934,16.0695416 C74.7471179,16.1505963 69.7861992,16.1631724 66.9503592,16.0695416 C65.9875126,16.0295416 65.8804127,17.2218337 66.9503592,17.3691765 C69.2108712,17.6785477 69.9468085,18.7372089 71.1500835,20.4124219 L76.1519641,27.877574 C76.6338731,28.6015497 76.727292,29.069785 76.165564,29.7275538 L72.0467111,34.6070669 C70.5222175,36.3213063 68.5966052,37.7966815 66.0830363,38.1439432 C64.9050994,38.3059716 65.3870085,39.4308398 66.456874,39.3772089 C69.5184899,39.2172901 72.3270489,39.1099473 75.5629551,39.2562353 C76.3514305,39.2856876 76.4984399,38.171286 75.6962836,37.9576552 C72.4866059,37.0600487 74.3449469,34.3798053 76.311521,31.8721379 L77.1535868,30.8408195 C77.7415434,30.1316105 78.3168713,30.7609006 78.6108901,31.1365598 L81.0320114,34.2851197 C82.8904333,36.8852819 82.2079245,37.6229696 80.8839497,37.984998 C80.0954743,38.1986288 80.2424837,39.2856876 81.0320114,39.2572901 C84.2283319,39.1122191 88.5819465,39.216641 91.6411338,39.3744503 C91.7818289,39.4243489 91.9529621,39.4555051 92.1581762,39.4593185 C93.9230982,39.4856065 96.4775479,39.1919757 98.2299223,39.1919757 L98.2299223,39.1920568 L99.9412539,39.1920568 C101.706257,39.1920568 104.259654,39.4856065 106.010976,39.4593185 C107.442051,39.4319757 107.282413,38.1071075 106.010976,37.9587099 C103.188817,37.6503935 100.795948,37.1810223 100.783401,34.5670669 C100.314039,29.5149777 100.23422,22.1035375 100.541839,11.55514 C100.582801,10.2008195 101.184438,10.0271886 101.825985,11.4877972 L113.164164,37.5009412 C113.767906,38.8679189 114.288672,39.5382637 115.022505,37.5956268 L125.013719,11.2856876 C125.655185,9.58305071 126.324012,9.83773631 126.350241,11.7013469 L126.696717,34.5660122 C126.657941,36.4422799 125.602647,37.5419959 122.780488,37.8503124 C121.523703,37.9955456 121.363013,39.4308398 122.780488,39.4572089 C124.543386,39.483497 125.814822,39.1899473 127.539835,39.1899473 L132.621535,39.1899473 C134.345495,39.1899473 135.617012,39.483497 137.382906,39.4572089 C138.811876,39.4308398 138.63969,37.9966004 137.382906,37.8503124" id="Fill-3"></path>
                <path d="M59.154572,32.3709452 C58.9939627,33.9662394 58.4060061,35.1995051 57.8442781,35.6404787 C56.3859225,36.8201136 54.514953,37.12843 53.6582348,36.3759757 C51.4134276,34.379789 51.9887556,31.8994645 53.2045781,29.7685923 C53.5930682,29.086645 54.2608437,28.3889574 55.2907998,27.7870101 C55.9673991,27.3628316 56.6893317,27.0162191 57.4431595,26.7536633 C58.6999439,26.3116349 59.2218434,26.9283489 59.2616719,27.8680649 C59.3405194,29.3695659 59.3047385,30.8749615 59.154572,32.3709452 M66.0978506,37.771432 C66.4452978,37.4094037 66.1503077,37.0337444 65.7092796,36.9926897 C64.2918858,36.8853469 63.8771672,35.8267667 63.8771672,34.7007627 L63.8771672,21.16486 C63.8771672,18.5509047 63.515958,16.6882677 62.0986452,15.8443732 C60.2129424,14.7320811 57.8599829,13.9681055 54.275577,14.785712 C51.9478747,15.3076592 48.096731,17.3849006 46.5596088,21.16486 C46.1448902,22.1960974 46.4924184,22.840073 47.1885272,23.0684706 C48.7529303,23.5777606 50.197605,22.410783 50.7992425,20.9638053 C51.6402559,18.9139878 52.1757554,17.3723245 53.23194,16.7693225 C54.9034431,15.8180041 56.2410179,16.3000325 57.4978023,16.8230345 C58.9687865,17.4396673 59.2900052,19.9999108 59.2627243,23.0558134 C59.2501767,24.0071318 58.9151961,24.6090791 58.380749,24.9710264 C57.4978023,25.5466856 56.4552176,26.0033996 55.1175619,26.5126897 C53.0986116,27.2777201 50.5314523,29.0182475 49.0332681,30.5209655 C47.9098121,31.6468884 47.3218556,32.7444949 47.3218556,34.9974767 C47.3355365,37.2894037 47.7901647,37.8913509 48.4988211,38.6027505 C50.2238336,40.3453063 51.882789,40.1169899 53.6340301,39.5129331 C55.2929046,38.937355 56.6431889,37.9061176 58.1812825,36.8326897 C58.5687202,36.565428 59.2375481,36.53914 59.4653479,36.9127708 C61.4970077,40.2380446 64.4388951,39.526645 66.0978506,37.771432" id="Fill-5"></path>
                <path d="M150.20681,32.3709452 C150.058749,33.9662394 149.458244,35.1995051 148.896435,35.6404787 C147.438161,36.8201136 145.580791,37.12843 144.725044,36.3759757 C142.465666,34.379789 143.039941,31.8994645 144.255764,29.7685923 C144.643202,29.086645 145.314134,28.3889574 146.343038,27.7870101 C147.022633,27.3676187 147.744403,27.0212495 148.49645,26.7536633 C149.753235,26.3116349 150.274001,26.9283489 150.32751,27.8680649 C150.394539,29.3699716 150.354143,30.8747992 150.20681,32.3709452 M156.760465,36.9926897 C155.3557,36.8853469 154.927301,35.8267667 154.927301,34.7007627 L154.941953,21.16486 C154.941953,18.5509047 154.567144,16.6882677 153.162379,15.8443732 C151.263076,14.7320811 148.923797,13.9681055 145.326763,14.785712 C142.999061,15.3076592 139.147917,17.3849006 137.624395,21.16486 L137.624476,21.16486 C137.196076,22.1960974 137.544657,22.840073 138.250237,23.0684706 C139.802983,23.5777606 141.246686,22.410783 141.849376,20.9638053 C142.703989,18.9139878 143.239489,17.3723245 144.295673,16.7693225 C145.967177,15.8180041 147.292204,16.3000325 148.548988,16.8230345 C150.033572,17.4396673 150.353739,19.9999108 150.312858,23.0558134 C150.300229,24.0071318 149.966382,24.6090791 149.430882,24.9710264 C148.550041,25.5466856 147.520084,26.0033996 146.168748,26.5126897 C144.148745,27.2777201 141.581667,29.0182475 140.097002,30.5209655 C138.960998,31.6468884 138.371989,32.7444949 138.386641,34.9974767 C138.386641,37.2894037 138.840298,37.8913509 139.563607,38.6027505 C141.273967,40.3453063 142.945551,40.1169899 144.684164,39.5129331 C146.343038,38.937355 147.69227,37.9061176 149.230364,36.8326897 C149.617801,36.565428 150.300229,36.53914 150.52811,36.9127708 C152.548194,40.2380446 155.489029,39.526645 157.147903,37.771432 C157.494379,37.4094037 157.214122,37.0337444 156.760465,36.9926897" id="Fill-7"></path>
                <path d="M189.335702,32.3709452 C189.176064,33.9662394 188.572403,35.1995051 188.025328,35.6404787 C186.566972,36.8201136 184.69495,37.12843 183.840337,36.3759757 C181.592453,34.379789 182.1541,31.8994645 183.384656,29.7685923 C183.772013,29.086645 184.440841,28.3889574 185.45833,27.7870101 C186.137844,27.3676187 186.859614,27.0212495 187.611742,26.7536633 C188.881074,26.3116349 189.389212,26.9283489 189.442802,27.8680649 C189.513797,29.3696471 189.478017,30.8744746 189.335702,32.3709452 M195.887253,36.9926897 C194.470911,36.8853469 194.056193,35.8267667 194.056193,34.7007627 L194.056193,21.16486 C194.056193,18.5509047 193.696036,16.6882677 192.276537,15.8443732 C190.391968,14.7320811 188.037956,13.9681055 184.440841,14.785712 C182.113138,15.3076592 178.262076,17.3849006 176.738634,21.16486 C176.310235,22.1960974 176.658815,22.840073 177.367472,23.0684706 C178.918194,23.5777606 180.361897,22.410783 180.964587,20.9638053 C181.819201,18.9139878 182.3547,17.3723245 183.410966,16.7693225 C185.081335,15.8180041 186.406282,16.3000325 187.675776,16.8230345 C189.145626,17.4396673 189.467978,19.9999108 189.427017,23.0558134 C189.427017,24.0071318 189.092117,24.6090791 188.545041,24.9710264 C187.675776,25.5466856 186.634243,26.0033996 185.282988,26.5126897 C183.262823,27.2777201 180.710478,29.0182475 179.211241,30.5209655 C178.08989,31.6468884 177.486148,32.7444949 177.500881,34.9974767 C177.500881,37.2894037 177.968057,37.8913509 178.677847,38.6027505 C180.402859,40.3453063 182.059629,40.1169899 183.812975,39.5129331 C185.469825,38.937355 186.821162,37.9061176 188.359256,36.8326897 C188.746693,36.565428 189.41544,36.53914 189.643321,36.9127708 C191.6749,40.2380446 194.603187,39.526645 196.27469,37.771432 C196.62319,37.4094037 196.3282,37.0337444 195.887253,36.9926897" id="Fill-9"></path>
                <path d="M176.322863,15.9906045 C175.881916,15.2403408 174.543208,14.3290223 172.484267,14.7446815 C170.999683,15.039286 169.583342,15.8980284 167.89921,17.6532414 C167.42993,18.1352698 166.814692,18.2163245 166.722245,17.0229777 C166.654083,16.2452901 166.654083,15.4686572 166.586812,14.7046815 C166.480845,13.5786775 166.080698,13.3903611 165.370989,14.0207059 C163.578705,15.602288 161.801235,16.8492657 160.088771,17.6806653 C159.032586,18.1889006 158.980129,18.9402191 160.142361,19.4358783 C161.748778,20.1188803 161.949216,21.2594888 161.949216,22.7475213 L161.949216,34.3123895 C161.934564,36.269712 161.574407,37.6504016 158.752248,37.9587181 C157.495464,38.1071156 157.321092,39.4330385 158.752248,39.4593266 C160.51717,39.4856146 163.070568,38.8300365 164.823994,38.8300365 C167.156878,38.827359 169.489032,38.9123083 171.815439,39.0847221 C173.246595,39.0699554 173.086957,37.8103205 171.815439,37.6620041 C168.994333,37.3536065 166.896616,37.006426 166.881883,34.3924706 L166.881883,22.8275213 C166.881883,21.2585152 167.216863,19.2074807 169.650532,18.9528763 C170.358136,18.8855335 171.040645,19.4211116 171.750435,19.9841947 C172.818196,20.829144 174.128489,21.4184341 175.547988,20.6007465 C176.778544,19.8915375 177.512457,18.0289817 176.322863,15.9906045" id="Fill-11"></path>
            </g>
        </g>
    </g>
</svg>