<?xml version="1.0" encoding="utf-8"?>
<!-- Generator: Adobe Illustrator 24.0.1, SVG Export Plug-In . SVG Version: 6.00 Build 0)  -->
<svg version="1.1" id="레이어_1" xmlns="http://www.w3.org/2000/svg" xmlns:xlink="http://www.w3.org/1999/xlink" x="0px"
	 y="0px" viewBox="0 0 430.47 74.62" style="enable-background:new 0 0 430.47 74.62;" xml:space="preserve">
<style type="text/css">
	.st0{fill:#E8390E;}
	.st1{fill:#4C4A49;}
</style>
<text transform="matrix(1 0 0 1 8.7451 -80.8262)"><tspan x="0" y="0" style="fill:#999999; font-family:'NanumGothicBold'; font-size:16.8955px;">P</tspan><tspan x="9.43" y="0" style="fill:#999999; font-family:'NanumGothicBold'; font-size:16.8955px;">r</tspan><tspan x="15.49" y="0" style="fill:#999999; font-family:'NanumGothicBold'; font-size:16.8955px;">i</tspan><tspan x="19.21" y="0" style="fill:#999999; font-family:'NanumGothicBold'; font-size:16.8955px;">m</tspan><tspan x="34.08" y="0" style="fill:#999999; font-family:'NanumGothicBold'; font-size:16.8955px;">a</tspan><tspan x="42.75" y="0" style="fill:#999999; font-family:'NanumGothicBold'; font-size:16.8955px;">r</tspan><tspan x="49.3" y="0" style="fill:#999999; font-family:'NanumGothicBold'; font-size:16.8955px;">y </tspan><tspan x="61.57" y="0" style="fill:#999999; font-family:'NanumGothicBold'; font-size:16.8955px;">L</tspan><tspan x="69.63" y="0" style="fill:#999999; font-family:'NanumGothicBold'; font-size:16.8955px;">o</tspan><tspan x="79.59" y="0" style="fill:#999999; font-family:'NanumGothicBold'; font-size:16.8955px;">g</tspan><tspan x="89.53" y="0" style="fill:#999999; font-family:'NanumGothicBold'; font-size:16.8955px;">o</tspan></text>
<text transform="matrix(1 0 0 1 550.5229 -80.8262)"><tspan x="0" y="0" style="fill:#999999; font-family:'NanumGothicBold'; font-size:16.8955px;">S</tspan><tspan x="9.02" y="0" style="fill:#999999; font-family:'NanumGothicBold'; font-size:16.8955px;">e</tspan><tspan x="18.01" y="0" style="fill:#999999; font-family:'NanumGothicBold'; font-size:16.8955px;">c</tspan><tspan x="25.71" y="0" style="fill:#999999; font-family:'NanumGothicBold'; font-size:16.8955px;">o</tspan><tspan x="35.56" y="0" style="fill:#999999; font-family:'NanumGothicBold'; font-size:16.8955px;">n</tspan><tspan x="45.35" y="0" style="fill:#999999; font-family:'NanumGothicBold'; font-size:16.8955px;">d</tspan><tspan x="55.18" y="0" style="fill:#999999; font-family:'NanumGothicBold'; font-size:16.8955px;">a</tspan><tspan x="63.85" y="0" style="fill:#999999; font-family:'NanumGothicBold'; font-size:16.8955px;">r</tspan><tspan x="70.4" y="0" style="fill:#999999; font-family:'NanumGothicBold'; font-size:16.8955px;">y</tspan><tspan x="78.09" y="0" style="fill:#999999; font-family:'NanumGothicBold'; font-size:16.8955px;"> </tspan><tspan x="82.65" y="0" style="fill:#999999; font-family:'NanumGothicBold'; font-size:16.8955px;">L</tspan><tspan x="90.71" y="0" style="fill:#999999; font-family:'NanumGothicBold'; font-size:16.8955px;">o</tspan><tspan x="100.68" y="0" style="fill:#999999; font-family:'NanumGothicBold'; font-size:16.8955px;">g</tspan><tspan x="110.6" y="0" style="fill:#999999; font-family:'NanumGothicBold'; font-size:16.8955px;">o</tspan></text>
<text transform="matrix(1 0 0 1 8.7451 191.1396)"><tspan x="0" y="0" style="fill:#999999; font-family:'NanumGothicBold'; font-size:16.8955px;">P</tspan><tspan x="9.43" y="0" style="fill:#999999; font-family:'NanumGothicBold'; font-size:16.8955px;">r</tspan><tspan x="15.49" y="0" style="fill:#999999; font-family:'NanumGothicBold'; font-size:16.8955px;">i</tspan><tspan x="19.21" y="0" style="fill:#999999; font-family:'NanumGothicBold'; font-size:16.8955px;">m</tspan><tspan x="34.08" y="0" style="fill:#999999; font-family:'NanumGothicBold'; font-size:16.8955px;">a</tspan><tspan x="42.75" y="0" style="fill:#999999; font-family:'NanumGothicBold'; font-size:16.8955px;">r</tspan><tspan x="49.3" y="0" style="fill:#999999; font-family:'NanumGothicBold'; font-size:16.8955px;">y </tspan><tspan x="61.57" y="0" style="fill:#999999; font-family:'NanumGothicBold'; font-size:16.8955px;">S</tspan><tspan x="70.39" y="0" style="fill:#999999; font-family:'NanumGothicBold'; font-size:16.8955px;">i</tspan><tspan x="74.14" y="0" style="fill:#999999; font-family:'NanumGothicBold'; font-size:16.8955px;">g</tspan><tspan x="83.87" y="0" style="fill:#999999; font-family:'NanumGothicBold'; font-size:16.8955px;">n</tspan><tspan x="93.63" y="0" style="fill:#999999; font-family:'NanumGothicBold'; font-size:16.8955px;">a</tspan><tspan x="102.47" y="0" style="fill:#999999; font-family:'NanumGothicBold'; font-size:16.8955px;">t</tspan><tspan x="108.18" y="0" style="fill:#999999; font-family:'NanumGothicBold'; font-size:16.8955px;">u</tspan><tspan x="117.84" y="0" style="fill:#999999; font-family:'NanumGothicBold'; font-size:16.8955px;">r</tspan><tspan x="123.81" y="0" style="fill:#999999; font-family:'NanumGothicBold'; font-size:16.8955px;">e</tspan></text>
<g>
	<path class="st0" d="M123.92,35.18c3.42-3.09,6.85-6.5,10.32-10.23h-4.36c-3.01,0-5.57,1.13-7.7,3.25
		c-0.89,0.88-1.77,1.73-2.65,2.55C105.78,17.46,91.87,9.98,79.05,9.98c-10.83,0-21.17,5.23-31.59,14.84
		c-2.48-2.43-4.95-5.05-7.4-7.85c-3.95-4.53-8.83-7-14.84-7H8.75c8.89,10.71,18.09,19.81,27.32,26.98
		c-4.5,5.4-9.05,11.55-13.71,18.37h3.17c3.01,0,5.37-1.28,7.08-3.76c2.79-4.05,5.51-7.76,8.19-11.11
		c13.58,9.57,27.13,14.86,39.78,14.86c10.46,0,20.53-3.54,30.58-10.16c0.89,1.13,1.78,2.29,2.66,3.48
		c3.22,4.35,7.44,6.68,12.85,6.68h13.61C134.92,47.77,129.44,41.02,123.92,35.18 M88.15,45.81c-11.54,0-24.08-6.08-36.45-17.03
		c6.87-6.03,13.68-9.28,20.88-9.28c10.9,0,22.85,7.47,34.49,20.75C100.87,43.88,94.64,45.81,88.15,45.81"/>
	<path class="st1" d="M274.82,35.17v16.89c0,1.99-1.29,3.28-3.28,3.28h-4.28V33.98c0-2.98-1.64-4.49-4.88-4.49
		c-1.89,0-2.97,0.24-4.16,0.68v21.88c0,1.99-1.29,3.28-3.28,3.28h-4.28v-28.4c3.31-1.71,7.48-2.54,12.43-2.54
		C270.52,24.4,274.82,27.76,274.82,35.17 M244.8,35.17v18.4c-3.29,1.57-6.68,2.31-11.11,2.31c-7.83,0-12.49-3.46-12.49-9.53
		c0-8.4,8.58-11.52,16.48-11.18v-0.72c0-3.36-1.62-4.77-5.42-4.77c-3.41,0-6.67,1.36-7.81,1.88v-5.59c2.16-0.84,4.9-1.58,8.63-1.58
		C240.49,24.4,244.8,27.76,244.8,35.17 M237.68,39.63c-5.01,0-9.31,1.97-9.31,6.71c0,2.99,2.11,4.77,5.75,4.77
		c1.3,0,2.6-0.24,3.56-0.65V39.63z M178.21,16.78h-5.01c-2.19,0-3.88,0.91-5.08,2.73l-8.6,13V16.78h-4.63
		c-1.99,0-3.28,1.29-3.28,3.28v35.27h4.63c1.99,0,3.28-1.29,3.28-3.28v-14.5l9.78,15.03c1.19,1.83,2.87,2.75,5.06,2.75h5.78
		l-13.8-20.61L178.21,16.78z M212.67,28.12l-4.33,16.92l-5.14-20.1h-3.44c-2.19,0-3.54,1.05-4.09,3.17l-4.33,16.92l-4.33-16.92
		c-0.54-2.12-1.9-3.17-4.09-3.17h-4.23l8.45,30.39h3.54c2.19,0,3.57-1.05,4.15-3.16l4.6-16.54l5.48,19.7h3.74
		c2.19,0,3.57-1.05,4.16-3.16l7.58-27.23h-3.65C214.57,24.95,213.22,26,212.67,28.12 M421.47,26.69v27.87
		c0,7.86-4.57,12.33-12.54,12.33c-3.7,0-6.93-0.64-9.63-1.85l1.51-5.43c2.17,1.13,4.52,1.7,7.05,1.7c4.27,0,6.27-1.82,6.27-5.72
		v-1.04c-1.51,0.69-3.22,1.05-5.09,1.05c-7.48,0-12.32-5.82-12.32-14.84c0-10.4,5.37-16.37,14.73-16.37
		C415.34,24.4,418.69,25.19,421.47,26.69 M414.13,29.98c-0.72-0.33-1.66-0.48-3.01-0.48c-4.64,0-6.9,3.67-6.9,11.22
		c0,7.2,2.03,10.41,6.57,10.41c1.24,0,2.42-0.27,3.34-0.75V29.98z M380.56,24.4c-4.94,0-9.12,0.83-12.43,2.54v28.4h4.28
		c1.99,0,3.28-1.29,3.28-3.28V30.18c1.19-0.45,2.27-0.68,4.16-0.68c3.24,0,4.88,1.51,4.88,4.49v21.35H389
		c1.99,0,3.28-1.29,3.28-3.28V35.17C392.28,27.76,387.97,24.4,380.56,24.4 M293.99,24.4c3.89,0,7.25,0.79,10.02,2.3v27.87
		c0,7.86-4.57,12.33-12.54,12.33c-3.71,0-6.93-0.64-9.63-1.85l1.51-5.43c2.17,1.13,4.52,1.7,7.05,1.7c4.27,0,6.27-1.82,6.27-5.72
		v-1.04c-1.51,0.69-3.22,1.05-5.09,1.05c-7.49,0-12.32-5.82-12.32-14.84C279.26,30.37,284.63,24.4,293.99,24.4 M296.67,29.98
		c-0.72-0.33-1.66-0.48-3.01-0.48c-4.64,0-6.9,3.67-6.9,11.22c0,7.2,2.03,10.41,6.57,10.41c1.24,0,2.42-0.27,3.34-0.75V29.98z
		 M363.69,40.17c0,9.69-4.95,15.71-12.93,15.71c-7.99,0-12.94-6.02-12.94-15.71c0-9.88,4.84-15.77,12.94-15.77
		C358.85,24.4,363.69,30.29,363.69,40.17 M356.19,40.28c0-7.46-1.68-10.79-5.43-10.79c-3.71,0-5.45,3.43-5.45,10.79
		c0,7.07,1.78,10.51,5.45,10.51C354.51,50.79,356.19,47.55,356.19,40.28 M329.1,12.93h4.27v40.66c-3.04,1.5-6.63,2.29-10.73,2.29
		c-8.88,0-14.18-5.75-14.18-15.39c0-9.61,5.24-15.83,13.36-15.83c1.51,0,2.83,0.14,4,0.42V16.2
		C325.82,14.21,327.11,12.93,329.1,12.93 M325.82,29.61c-0.75-0.19-1.58-0.28-2.52-0.28c-6.06,0-7.34,5.87-7.34,10.79
		c0,7.05,2.3,10.63,6.84,10.63c1.45,0,2.38-0.15,3.01-0.47V29.61z"/>
</g>
<g>
	<path class="st0" d="M811.86-20.16c3.42-3.09,6.85-6.5,10.32-10.23h-4.36c-3.01,0-5.56,1.13-7.7,3.25
		c-0.89,0.88-1.77,1.73-2.65,2.55c-13.75-13.28-27.66-20.76-40.49-20.76c-10.83,0-21.17,5.23-31.59,14.84
		c-2.48-2.43-4.95-5.05-7.4-7.85c-3.95-4.53-8.83-7-14.84-7h-16.47c8.89,10.71,18.09,19.81,27.31,26.98
		c-4.5,5.4-9.05,11.55-13.71,18.37h3.17c3.01,0,5.37-1.28,7.08-3.76c2.79-4.05,5.51-7.76,8.19-11.11C742.32-5.29,755.87,0,768.51,0
		c10.46,0,20.53-3.54,30.58-10.16c0.89,1.13,1.78,2.29,2.66,3.48C804.98-2.33,809.2,0,814.61,0h13.61
		C822.87-7.56,817.39-14.31,811.86-20.16 M776.1-9.52c-11.54,0-24.08-6.08-36.45-17.03c6.87-6.03,13.68-9.28,20.88-9.28
		c10.9,0,22.85,7.47,34.49,20.75C788.81-11.45,782.59-9.52,776.1-9.52"/>
	<path class="st1" d="M678.84,35.17v16.89c0,1.99-1.28,3.28-3.28,3.28h-4.28V33.98c0-2.98-1.64-4.49-4.88-4.49
		c-1.89,0-2.97,0.24-4.16,0.68v21.88c0,1.99-1.29,3.28-3.28,3.28h-4.28v-28.4c3.31-1.71,7.48-2.54,12.43-2.54
		C674.54,24.4,678.84,27.76,678.84,35.17 M616.7,28.12l-4.33,16.92l-5.14-20.1h-3.44c-2.19,0-3.55,1.05-4.09,3.17l-4.33,16.92
		l-4.33-16.92c-0.54-2.12-1.9-3.17-4.09-3.17h-4.22l8.45,30.39h3.54c2.19,0,3.57-1.05,4.15-3.16l4.6-16.54l5.48,19.7h3.74
		c2.19,0,3.57-1.05,4.16-3.16l7.58-27.23h-3.65C618.6,24.95,617.24,26,616.7,28.12 M648.82,35.17v18.4
		c-3.29,1.57-6.68,2.31-11.11,2.31c-7.83,0-12.49-3.46-12.49-9.53c0-8.4,8.58-11.52,16.48-11.18v-0.72c0-3.36-1.62-4.77-5.42-4.77
		c-3.41,0-6.67,1.36-7.81,1.88v-5.59c2.16-0.84,4.9-1.58,8.63-1.58C644.52,24.4,648.82,27.76,648.82,35.17 M641.7,39.63
		c-5.01,0-9.31,1.97-9.31,6.71c0,2.99,2.11,4.77,5.75,4.77c1.3,0,2.6-0.24,3.56-0.65V39.63z M582.24,16.78h-5.01
		c-2.19,0-3.88,0.91-5.09,2.73l-8.6,13V16.78h-4.63c-1.99,0-3.28,1.29-3.28,3.28v35.28h4.63c1.99,0,3.28-1.29,3.28-3.28v-14.5
		l9.78,15.03c1.19,1.83,2.87,2.75,5.06,2.75h5.78l-13.8-20.61L582.24,16.78z M784.58,24.4c-4.94,0-9.12,0.83-12.43,2.54v28.4h4.28
		c1.99,0,3.28-1.29,3.28-3.28V30.17c1.19-0.45,2.27-0.68,4.16-0.68c3.24,0,4.88,1.51,4.88,4.49v21.35h4.28
		c1.99,0,3.28-1.29,3.28-3.28V35.17C796.3,27.76,792,24.4,784.58,24.4 M825.49,26.69v27.87c0,7.86-4.57,12.33-12.54,12.33
		c-3.7,0-6.93-0.64-9.63-1.85l1.51-5.43c2.17,1.13,4.52,1.7,7.05,1.7c4.27,0,6.27-1.83,6.27-5.73v-1.04
		c-1.51,0.69-3.21,1.05-5.09,1.05c-7.49,0-12.32-5.82-12.32-14.84c0-10.4,5.37-16.37,14.73-16.37
		C819.36,24.4,822.72,25.19,825.49,26.69 M818.15,29.97c-0.71-0.33-1.66-0.48-3.01-0.48c-4.64,0-6.9,3.67-6.9,11.22
		c0,7.2,2.03,10.41,6.57,10.41c1.24,0,2.42-0.27,3.34-0.75V29.97z M698.02,24.4c3.89,0,7.25,0.79,10.02,2.29v27.87
		c0,7.86-4.57,12.33-12.54,12.33c-3.7,0-6.93-0.64-9.63-1.85l1.51-5.43c2.17,1.13,4.52,1.7,7.05,1.7c4.27,0,6.27-1.83,6.27-5.73
		v-1.04c-1.51,0.69-3.22,1.05-5.09,1.05c-7.49,0-12.32-5.82-12.32-14.84C683.29,30.37,688.65,24.4,698.02,24.4 M700.7,29.97
		c-0.72-0.33-1.66-0.48-3.01-0.48c-4.64,0-6.9,3.67-6.9,11.22c0,7.2,2.02,10.41,6.57,10.41c1.24,0,2.42-0.27,3.34-0.75V29.97z
		 M733.12,12.93h4.27v40.66c-3.04,1.5-6.64,2.29-10.73,2.29c-8.88,0-14.18-5.75-14.18-15.38c0-9.61,5.24-15.82,13.36-15.82
		c1.51,0,2.83,0.14,4,0.42V16.2C729.84,14.21,731.13,12.93,733.12,12.93 M729.84,29.61c-0.75-0.19-1.58-0.28-2.52-0.28
		c-6.06,0-7.34,5.87-7.34,10.79c0,7.05,2.3,10.63,6.85,10.63c1.45,0,2.37-0.15,3.01-0.47V29.61z M767.71,40.17
		c0,9.69-4.95,15.71-12.93,15.71c-7.99,0-12.95-6.02-12.95-15.71c0-9.88,4.84-15.77,12.95-15.77
		C762.88,24.4,767.71,30.29,767.71,40.17 M760.21,40.28c0-7.46-1.68-10.79-5.43-10.79c-3.71,0-5.44,3.43-5.44,10.79
		c0,7.07,1.78,10.51,5.44,10.51C758.53,50.79,760.21,47.55,760.21,40.28"/>
</g>
<g>
	<path class="st1" d="M289.78,299.55h4.27v1.23c0,0.87-0.56,1.42-1.42,1.42h-2.85v5.9c0,0.87-0.56,1.42-1.42,1.42h-3.05v-3.11
		c-1.4,1.67-3.58,2.54-6.94,2.54h-12.09c-0.87,0-1.42-0.56-1.42-1.42v-1.23h4.7v-7.04h3.05c0.87,0,1.42,0.56,1.42,1.42v5.61h3.74
		c4.3,0,7.54-0.8,7.54-3.72v-9.02h3.05c0.87,0,1.42,0.56,1.42,1.42V299.55z M320.12,316.5c0,3.99-4.55,6.27-10.26,6.27
		c-5.71,0-10.25-2.28-10.25-6.27c0-3.99,4.55-6.27,10.25-6.27C315.57,310.23,320.12,312.51,320.12,316.5 M315.37,316.5
		c0-1.97-2.16-3.62-5.5-3.62c-3.36,0-5.5,1.65-5.5,3.62c0,1.96,2.14,3.61,5.5,3.61C313.21,320.12,315.37,318.46,315.37,316.5
		 M289.36,316.5c0,3.99-4.55,6.27-10.26,6.27c-5.71,0-10.25-2.28-10.25-6.27c0-3.99,4.55-6.27,10.25-6.27
		C284.81,310.23,289.36,312.51,289.36,316.5 M284.6,316.5c0-1.97-2.16-3.62-5.5-3.62c-3.36,0-5.5,1.65-5.5,3.62
		c0,1.96,2.14,3.61,5.5,3.61C282.44,320.12,284.6,318.46,284.6,316.5 M267.71,296.21h8.63c0.87,0,1.42,0.56,1.42,1.42v6.47h3.05
		c0.87,0,1.42-0.56,1.42-1.42v-5.41c0-2.25-1.45-3.7-3.7-3.7h-12.25v1.22C266.28,295.66,266.84,296.21,267.71,296.21 M351.6,293.57
		h-2.65v28.49h2.65c0.87,0,1.42-0.56,1.42-1.42v-25.64C353.03,294.12,352.47,293.57,351.6,293.57 M366.13,308.81
		c-5.11,0-8.4-2.99-8.4-7.62c0-4.63,3.3-7.62,8.4-7.62c5.1,0,8.4,2.99,8.4,7.62C374.54,305.82,371.24,308.81,366.13,308.81
		 M366.13,306.16c2.39,0,3.93-1.95,3.93-4.97c0-3.02-1.54-4.97-3.93-4.97c-2.39,0-3.93,1.95-3.93,4.97
		C362.2,304.21,363.74,306.16,366.13,306.16 M378.95,310.94h-16.52v1.22c0,0.87,0.56,1.42,1.42,1.42h12.91
		c0.86,0,1.42,0.56,1.42,1.43v7.04h3.05c0.87,0,1.42-0.56,1.42-1.42v-5.98C382.66,312.4,381.2,310.94,378.95,310.94 M385.5,299.92
		c0.87,0,1.42-0.56,1.42-1.42v-1.22h-4.27v-2.28c0-0.87-0.56-1.42-1.42-1.42h-3.05v15.95h3.05c0.87,0,1.42-0.56,1.42-1.42v-3.05
		h2.85c0.87,0,1.42-0.56,1.42-1.43v-1.22h-4.27v-2.48H385.5z M337.87,296.13c0.1-1.56-0.97-2.56-2.53-2.56h-7.82v1.22
		c0,0.87,0.56,1.42,1.42,1.42h4.46c-0.45,7.05-3.12,11.34-7.31,15.55l0.97,0.89c0.61,0.55,1.42,0.58,2.12,0.02
		c1.77-1.43,3.39-3.03,4.73-4.93c1.36,1.9,2.97,3.5,4.74,4.93c0.7,0.56,1.5,0.53,2.1-0.02c0.54-0.49,0.98-0.89,0.98-0.89
		c-2.45-2.45-4.36-4.95-5.63-7.99C337.14,301.27,337.7,298.69,337.87,296.13 M345.71,293.57h-2.65v7.46h-4.27v1.22
		c0,0.87,0.56,1.42,1.42,1.42h2.85v18.38h2.65c0.87,0,1.42-0.56,1.42-1.42v-25.64C347.13,294.12,346.57,293.57,345.71,293.57
		 M312.1,303.96h7.17c0.87,0,1.42-0.56,1.42-1.42v-1.22h-15.61c-0.87,0-1.42-0.56-1.42-1.43v-3.67h15.33c0.87,0,1.42-0.56,1.42-1.42
		v-1.22h-21.22v6.69c0,2.25,1.45,3.7,3.7,3.7h4.74v2.34h-12.01v1.23c0,0.87,0.56,1.42,1.42,1.42h25.64c0.87,0,1.42-0.56,1.42-1.42
		v-1.23H312.1V303.96z"/>
	<path class="st0" d="M107.97,253.41c3.21-2.89,6.43-6.1,9.68-9.59h-4.08c-2.82,0-5.22,1.06-7.22,3.05
		c-0.83,0.82-1.66,1.62-2.49,2.39c-12.89-12.45-25.93-19.47-37.96-19.47c-10.15,0-19.84,4.9-29.62,13.92
		c-2.33-2.28-4.64-4.73-6.94-7.36c-3.71-4.24-8.28-6.56-13.91-6.56H0c8.34,10.04,16.96,18.57,25.61,25.3
		c-4.22,5.07-8.49,10.83-12.85,17.22h2.98c2.82,0,5.04-1.2,6.63-3.52c2.61-3.8,5.16-7.28,7.68-10.41
		c12.73,8.98,25.43,13.94,37.29,13.94c9.8,0,19.24-3.32,28.67-9.53c0.83,1.06,1.67,2.14,2.5,3.26c3.02,4.08,6.98,6.27,12.05,6.27
		h12.76C118.29,265.22,113.15,258.88,107.97,253.41 M74.44,263.38c-10.82,0-22.57-5.7-34.17-15.96c6.44-5.65,12.83-8.7,19.57-8.7
		c10.22,0,21.42,7,32.33,19.45C86.37,261.57,80.53,263.38,74.44,263.38"/>
	<path class="st1" d="M249.44,253.4v15.83c0,1.87-1.21,3.07-3.07,3.07h-4.01v-20.02c0-2.79-1.54-4.21-4.57-4.21
		c-1.77,0-2.78,0.22-3.9,0.64v20.51c0,1.87-1.21,3.07-3.07,3.07h-4.01v-26.62c3.1-1.61,7.02-2.38,11.65-2.38
		C245.41,243.3,249.44,246.45,249.44,253.4 M221.3,253.4v17.25c-3.09,1.47-6.27,2.17-10.42,2.17c-7.34,0-11.71-3.24-11.71-8.94
		c0-7.88,8.04-10.8,15.45-10.48v-0.68c0-3.15-1.52-4.47-5.08-4.47c-3.19,0-6.25,1.28-7.32,1.76v-5.24c2.03-0.79,4.6-1.48,8.09-1.48
		C217.27,243.3,221.3,246.45,221.3,253.4 M214.63,257.58c-4.7,0-8.73,1.85-8.73,6.29c0,2.8,1.97,4.47,5.39,4.47
		c1.22,0,2.44-0.22,3.33-0.61V257.58z M158.88,236.16h-4.7c-2.05,0-3.63,0.85-4.77,2.56l-8.06,12.19v-14.75h-4.34
		c-1.87,0-3.07,1.21-3.07,3.07v33.07h4.34c1.87,0,3.07-1.2,3.07-3.07v-13.59l9.17,14.09c1.12,1.72,2.69,2.57,4.75,2.57h5.42
		l-12.94-19.32L158.88,236.16z M191.18,246.79l-4.06,15.87l-4.82-18.84h-3.23c-2.05,0-3.32,0.99-3.83,2.98l-4.06,15.87l-4.06-15.87
		c-0.51-1.99-1.78-2.98-3.83-2.98h-3.96l7.93,28.49h3.32c2.05,0,3.34-0.98,3.9-2.96l4.32-15.51l5.14,18.47h3.5
		c2.05,0,3.35-0.98,3.9-2.96l7.1-25.53h-3.42C192.97,243.82,191.69,244.8,191.18,246.79 M386.93,245.46v26.13
		c0,7.37-4.29,11.56-11.76,11.56c-3.47,0-6.5-0.6-9.03-1.74l1.42-5.09c2.03,1.06,4.24,1.6,6.61,1.6c4,0,5.88-1.71,5.88-5.37v-0.97
		c-1.41,0.65-3.02,0.99-4.77,0.99c-7.02,0-11.55-5.46-11.55-13.91c0-9.75,5.03-15.35,13.81-15.35
		C381.18,243.3,384.33,244.04,386.93,245.46 M380.05,248.53c-0.67-0.31-1.55-0.45-2.82-0.45c-4.35,0-6.47,3.44-6.47,10.52
		c0,6.75,1.9,9.75,6.16,9.75c1.16,0,2.27-0.25,3.13-0.7V248.53z M348.57,243.3c-4.63,0-8.55,0.77-11.65,2.38v26.62h4.01
		c1.87,0,3.07-1.2,3.07-3.07v-20.51c1.11-0.42,2.13-0.64,3.9-0.64c3.04,0,4.57,1.42,4.57,4.21v20.02h4.01c1.87,0,3.07-1.2,3.07-3.07
		V253.4C359.56,246.45,355.53,243.3,348.57,243.3 M267.42,243.3c3.64,0,6.79,0.74,9.4,2.15v26.13c0,7.37-4.29,11.56-11.76,11.56
		c-3.47,0-6.5-0.6-9.03-1.74l1.42-5.09c2.03,1.06,4.24,1.6,6.61,1.6c4,0,5.88-1.71,5.88-5.37v-0.97c-1.41,0.65-3.01,0.99-4.77,0.99
		c-7.02,0-11.55-5.46-11.55-13.91C253.61,248.9,258.64,243.3,267.42,243.3 M269.93,248.53c-0.67-0.31-1.55-0.45-2.82-0.45
		c-4.35,0-6.47,3.44-6.47,10.52c0,6.75,1.9,9.75,6.16,9.75c1.16,0,2.27-0.25,3.13-0.7V248.53z M332.76,258.09
		c0,9.09-4.64,14.73-12.12,14.73c-7.49,0-12.13-5.64-12.13-14.73c0-9.26,4.54-14.78,12.13-14.78
		C328.23,243.3,332.76,248.83,332.76,258.09 M325.73,258.19c0-6.99-1.57-10.11-5.09-10.11c-3.48,0-5.1,3.21-5.1,10.11
		c0,6.63,1.67,9.85,5.1,9.85C324.15,268.04,325.73,265.01,325.73,258.19 M300.33,232.55h4.01v38.12c-2.85,1.41-6.22,2.15-10.06,2.15
		c-8.33,0-13.29-5.39-13.29-14.42c0-9.01,4.92-14.83,12.53-14.83c1.42,0,2.65,0.13,3.75,0.39v-8.33
		C297.26,233.76,298.46,232.55,300.33,232.55 M297.26,248.19c-0.71-0.18-1.48-0.27-2.37-0.27c-5.68,0-6.88,5.5-6.88,10.11
		c0,6.61,2.16,9.96,6.42,9.96c1.36,0,2.23-0.14,2.82-0.44V248.19z"/>
</g>
<g>
	<path class="st0" d="M721.99,281c2.16-1.95,4.34-4.11,6.53-6.47h-2.75c-1.9,0-3.52,0.72-4.87,2.06c-0.56,0.56-1.12,1.09-1.68,1.61
		c-8.7-8.41-17.5-13.14-25.62-13.14c-6.85,0-13.4,3.31-20,9.39c-1.57-1.54-3.13-3.19-4.68-4.97c-2.5-2.87-5.59-4.43-9.39-4.43H649.1
		c5.63,6.78,11.45,12.54,17.29,17.08c-2.85,3.42-5.73,7.31-8.68,11.63h2.01c1.9,0,3.4-0.81,4.48-2.38c1.76-2.56,3.49-4.91,5.18-7.03
		c8.6,6.06,17.17,9.41,25.17,9.41c6.62,0,12.99-2.24,19.35-6.43c0.56,0.71,1.12,1.45,1.68,2.2c2.04,2.75,4.71,4.23,8.13,4.23h8.61
		C728.95,288.97,725.48,284.7,721.99,281 M699.36,287.73c-7.31,0-15.24-3.85-23.07-10.77c4.35-3.81,8.66-5.87,13.21-5.87
		c6.9,0,14.46,4.73,21.82,13.13C707.4,286.51,703.46,287.73,699.36,287.73"/>
	<path class="st1" d="M611.4,309.2c-2.36,0-4.09,0.46-5.46,1v3.54c0.72-0.33,2.79-1.19,4.94-1.19c2.41,0,3.43,0.89,3.43,3.02v0.45
		c-5-0.21-10.43,1.75-10.43,7.07c0,3.85,2.95,6.03,7.9,6.03c2.8,0,4.95-0.47,7.03-1.46v-11.64
		C618.81,311.33,616.09,309.2,611.4,309.2 M614.31,325.69c-0.6,0.26-1.43,0.41-2.25,0.41c-2.31,0-3.64-1.13-3.64-3.02
		c0-3,2.72-4.25,5.89-4.25V325.69z M637.81,316.02v10.68c0,1.15-0.92,2.08-2.07,2.08h-2.71v-13.51c0-1.88-1.04-2.84-3.08-2.84
		c-1.2,0-1.88,0.15-2.63,0.43v13.84c0,1.15-0.93,2.08-2.07,2.08h-2.71v-17.97c2.09-1.08,4.74-1.61,7.86-1.61
		C635.09,309.2,637.81,311.33,637.81,316.02 M601.07,309.54h2.31l-4.8,17.23c-0.34,1.21-1.37,2-2.63,2h-2.36l-3.47-12.47
		l-2.91,10.47c-0.34,1.21-1.37,2-2.63,2h-2.24l-5.35-19.23h2.67c1.26,0,2.27,0.79,2.59,2.01l2.74,10.71l2.74-10.71
		c0.31-1.22,1.33-2.01,2.59-2.01h2.18l3.26,12.72l2.74-10.71C598.8,310.33,599.81,309.54,601.07,309.54 M569.17,315.73l8.73,13.04
		h-3.66c-1.26,0-2.51-0.68-3.2-1.74l-6.19-9.51v9.17c0,1.15-0.93,2.08-2.07,2.08h-2.93v-22.33c0-1.14,0.93-2.07,2.08-2.07h2.93v9.96
		l5.44-8.23c0.7-1.05,1.96-1.73,3.22-1.73h3.17L569.17,315.73z M724.27,309.2c-5.92,0-9.32,3.77-9.32,10.36
		c0,5.71,3.06,9.39,7.79,9.39c1.19,0,2.27-0.23,3.22-0.67v0.66c0,2.47-1.26,3.62-3.96,3.62c-1.6,0-3.09-0.36-4.46-1.08l-0.96,3.44
		c1.71,0.77,3.75,1.17,6.09,1.17c5.04,0,7.94-2.83,7.94-7.81v-17.64C728.86,309.7,726.73,309.2,724.27,309.2 M725.97,325.63
		c-0.58,0.31-1.33,0.48-2.11,0.48c-2.87,0-4.16-2.03-4.16-6.59c0-4.78,1.42-7.1,4.37-7.1c0.86,0,1.45,0.09,1.9,0.3V325.63z
		 M712.14,316.02v10.68c0,1.15-0.93,2.08-2.07,2.08h-2.71v-13.51c0-1.88-1.04-2.84-3.08-2.84c-1.19,0-1.88,0.15-2.63,0.43v13.84
		c0,1.15-0.92,2.08-2.07,2.08h-2.71v-17.97c2.09-1.08,4.74-1.61,7.86-1.61C709.42,309.2,712.14,311.33,712.14,316.02 M685.87,309.2
		c-5.13,0-8.19,3.73-8.19,9.98c0,6.13,3.14,9.94,8.19,9.94c5.05,0,8.18-3.81,8.18-9.94C694.05,312.93,690.99,309.2,685.87,309.2
		 M685.87,325.9c-2.32,0-3.45-2.17-3.45-6.65c0-4.66,1.1-6.83,3.45-6.83c2.38,0,3.43,2.11,3.43,6.83
		C689.3,323.85,688.24,325.9,685.87,325.9 M640.63,319.56c0,5.71,3.06,9.39,7.79,9.39c1.19,0,2.27-0.23,3.22-0.67v0.66
		c0,2.47-1.27,3.62-3.96,3.62c-1.6,0-3.09-0.36-4.46-1.08l-0.96,3.44c1.71,0.77,3.75,1.17,6.1,1.17c5.04,0,7.93-2.83,7.93-7.81
		v-17.64c-1.75-0.95-3.88-1.45-6.34-1.45C644.02,309.2,640.63,312.97,640.63,319.56 M651.64,325.63c-0.58,0.31-1.33,0.48-2.11,0.48
		c-2.88,0-4.16-2.03-4.16-6.59c0-4.78,1.43-7.1,4.37-7.1c0.86,0,1.45,0.09,1.9,0.3V325.63z M670.09,304.01v5.62
		c-0.74-0.17-1.57-0.26-2.53-0.26c-5.14,0-8.45,3.93-8.45,10.01c0,6.1,3.36,9.74,8.97,9.74c2.59,0,4.87-0.5,6.79-1.45v-25.73h-2.71
		C671.01,301.94,670.09,302.87,670.09,304.01 M670.09,325.57c-0.41,0.21-0.99,0.3-1.91,0.3c-2.88,0-4.33-2.27-4.33-6.73
		c0-3.11,0.81-6.83,4.64-6.83c0.6,0,1.12,0.06,1.6,0.18V325.57z"/>
	<path class="st1" d="M680.15,354.04c-3.74,0-6.72,1.49-6.72,4.1c0,2.61,2.98,4.11,6.72,4.11c3.73,0,6.71-1.5,6.71-4.11
		C686.87,355.53,683.89,354.04,680.15,354.04 M680.15,360.51c-2.2,0-3.6-1.08-3.6-2.37c0-1.29,1.4-2.37,3.6-2.37
		c2.19,0,3.6,1.08,3.6,2.37C683.75,359.43,682.34,360.51,680.15,360.51 M681.62,351.46h7.86v0.8c0,0.57-0.36,0.94-0.93,0.94h-16.79
		c-0.56,0-0.93-0.37-0.93-0.94v-0.8h7.86v-1.53h-3.11c-1.47,0-2.42-0.95-2.42-2.42v-4.38h13.9v0.8c0,0.57-0.36,0.93-0.93,0.93
		h-10.04v2.4c0,0.57,0.37,0.94,0.93,0.94h10.23v0.8c0,0.57-0.37,0.93-0.94,0.93h-4.69V351.46z M697.35,349.81
		c0.83,1.99,2.09,3.62,3.69,5.23c0,0-0.29,0.26-0.64,0.58c-0.4,0.36-0.93,0.38-1.38,0.01c-1.16-0.94-2.22-1.99-3.11-3.23
		c-0.88,1.24-1.94,2.29-3.1,3.23c-0.46,0.37-0.99,0.35-1.39-0.01l-0.64-0.58c2.75-2.76,4.49-5.56,4.79-10.18h-2.92
		c-0.57,0-0.93-0.37-0.93-0.93v-0.8h5.12c1.02,0,1.72,0.66,1.66,1.68C698.38,346.48,698.01,348.17,697.35,349.81 M659.63,354.04
		c-3.73,0-6.71,1.49-6.71,4.1c0,2.61,2.98,4.11,6.71,4.11c3.74,0,6.72-1.5,6.72-4.11C666.35,355.53,663.37,354.04,659.63,354.04
		 M659.63,360.51c-2.19,0-3.6-1.08-3.6-2.37c0-1.29,1.4-2.37,3.6-2.37c2.19,0,3.6,1.08,3.6,2.37
		C663.23,359.43,661.82,360.51,659.63,360.51 M651.23,343.93v-0.8h8.02c1.47,0,2.42,0.95,2.42,2.42v3.54c0,0.57-0.37,0.94-0.93,0.94
		h-1.99v-4.23c0-0.57-0.37-0.93-0.94-0.93h-5.65C651.6,344.86,651.23,344.49,651.23,343.93 M704.55,344.06v16.79
		c0,0.57-0.37,0.93-0.93,0.93h-1.74v-12.03h-1.87c-0.57,0-0.93-0.37-0.93-0.93v-0.8h2.8v-4.89h1.74
		C704.19,343.13,704.55,343.49,704.55,344.06 M666.63,347.04h2.8v0.8c0,0.57-0.37,0.93-0.93,0.93h-1.87v3.86
		c0,0.57-0.37,0.93-0.93,0.93h-1.99v-2.04c-0.92,1.1-2.35,1.67-4.55,1.67h-7.92c-0.57,0-0.93-0.37-0.93-0.94v-0.8h3.08v-4.61h2
		c0.56,0,0.93,0.37,0.93,0.93v3.68h2.45c2.82,0,4.94-0.53,4.94-2.43v-5.91h1.99c0.57,0,0.93,0.37,0.93,0.93V347.04z M708.41,344.06
		v16.79c0,0.57-0.36,0.93-0.93,0.93h-1.74v-18.65h1.74C708.05,343.13,708.41,343.49,708.41,344.06 M722.5,348.12
		c0-3.03-2.16-4.99-5.5-4.99c-3.35,0-5.51,1.96-5.51,4.99c0,3.03,2.16,4.99,5.51,4.99C720.34,353.11,722.5,351.15,722.5,348.12
		 M714.43,348.12c0-1.98,1.01-3.25,2.57-3.25c1.56,0,2.57,1.28,2.57,3.25c0,1.98-1.01,3.26-2.57,3.26
		C715.43,351.37,714.43,350.09,714.43,348.12 M727.82,356.93v3.92c0,0.57-0.37,0.93-0.94,0.93h-2v-4.6c0-0.57-0.37-0.94-0.94-0.94
		h-8.45c-0.56,0-0.93-0.36-0.93-0.93v-0.8h10.82C726.86,354.51,727.82,355.46,727.82,356.93 M727.82,345.55h2.8v0.8
		c0,0.57-0.36,0.93-0.93,0.93h-1.87v1.62h2.8v0.8c0,0.57-0.36,0.93-0.93,0.93h-1.87v1.99c0,0.57-0.37,0.93-0.94,0.93h-2v-10.45h2
		c0.57,0,0.94,0.37,0.94,0.93V345.55z"/>
</g>
<g>
	<path class="st0" d="M819.25,278.88c1.87-1.69,3.76-3.57,5.66-5.61h-2.39c-1.65,0-3.05,0.62-4.22,1.78
		c-0.49,0.48-0.97,0.95-1.46,1.39c-7.54-7.28-15.17-11.39-22.21-11.39c-5.94,0-11.61,2.87-17.33,8.14c-1.36-1.33-2.72-2.77-4.06-4.3
		c-2.17-2.48-4.84-3.84-8.14-3.84h-9.03c4.88,5.88,9.92,10.86,14.98,14.8c-2.47,2.97-4.97,6.33-7.52,10.08h1.74
		c1.65,0,2.95-0.7,3.88-2.06c1.53-2.22,3.02-4.26,4.49-6.09c7.45,5.25,14.88,8.15,21.81,8.15c5.74,0,11.26-1.94,16.78-5.57
		c0.49,0.62,0.97,1.25,1.46,1.91c1.77,2.39,4.08,3.67,7.05,3.67h7.46C825.28,285.79,822.28,282.08,819.25,278.88 M799.63,284.71
		c-6.33,0-13.21-3.33-19.99-9.34c3.77-3.31,7.51-5.09,11.45-5.09c5.98,0,12.53,4.09,18.91,11.38
		C806.61,283.65,803.19,284.71,799.63,284.71"/>
	<path class="st1" d="M814.34,346.91c0-1.92-0.38-3.34-0.81-4.45h-2.88c0.27,0.58,0.97,2.27,0.97,4.03c0,1.96-0.73,2.8-2.46,2.8
		h-0.37c0.17-4.08-1.43-8.51-5.77-8.51c-3.14,0-4.92,2.4-4.92,6.45c0,2.28,0.38,4.03,1.2,5.73h9.5
		C812.6,352.96,814.34,350.73,814.34,346.91 M800.89,349.28c-0.22-0.49-0.34-1.17-0.34-1.84c0-1.88,0.92-2.97,2.46-2.97
		c2.44,0,3.46,2.22,3.46,4.81H800.89z M814.05,338.49v1.88L800,336.46c-1.09-0.3-1.63-1.01-1.63-2.14v-1.93l10.17-2.83l-8.54-2.38
		c-1.09-0.3-1.63-1.02-1.63-2.14v-1.83l15.69-4.37v2.18c0,1.13-0.54,1.83-1.64,2.11l-8.74,2.23l8.74,2.24
		c1.1,0.28,1.64,0.98,1.64,2.11v1.77l-10.37,2.65l8.74,2.23C813.51,336.66,814.05,337.36,814.05,338.49 M808.77,368.45h-8.72
		c-1.03,0-1.69-0.66-1.69-1.7v-2.2h11.02c1.54,0,2.32-0.85,2.32-2.52c0-0.97-0.13-1.53-0.35-2.14h-11.3c-1.03,0-1.69-0.67-1.69-1.69
		v-2.21h14.66c0.88,1.71,1.31,3.87,1.31,6.42C814.34,366.23,812.6,368.45,808.77,368.45 M809.01,312.46l-10.64,7.12v-2.98
		c0-1.13,0.47-2,1.42-2.61l7.75-5.05h-7.48c-1.03,0-1.69-0.67-1.69-1.69v-2.39h18.21c1.03,0,1.69,0.66,1.69,1.69v2.39h-8.12
		l6.71,4.44c0.94,0.63,1.41,1.49,1.41,2.63v2.59L809.01,312.46z M805.89,370.75c-4.66,0-7.66,2.5-7.66,6.36
		c0,0.97,0.19,1.85,0.54,2.63h-0.53c-2.02,0-2.96-1.03-2.96-3.23c0-1.31,0.3-2.52,0.88-3.64l-2.81-0.78
		c-0.63,1.39-0.96,3.06-0.96,4.97c0,4.11,2.31,6.47,6.37,6.47h14.38c0.78-1.43,1.19-3.17,1.19-5.17
		C814.34,373.52,811.25,370.75,805.89,370.75 M800.93,379.73c-0.25-0.47-0.39-1.08-0.39-1.72c0-2.34,1.66-3.39,5.37-3.39
		c3.9,0,5.79,1.16,5.79,3.56c0,0.7-0.08,1.19-0.25,1.55H800.93z M818.57,394.78h-4.59c0.14-0.6,0.21-1.28,0.21-2.07
		c0-4.19-3.21-6.9-8.17-6.9c-4.97,0-7.94,2.74-7.94,7.32c0,2.11,0.41,3.97,1.19,5.54h20.99v-2.2
		C820.26,395.44,819.59,394.78,818.57,394.78 M800.98,394.78c-0.17-0.33-0.24-0.81-0.24-1.55c0-2.34,1.85-3.53,5.48-3.53
		c2.54,0,5.57,0.66,5.57,3.79c0,0.49-0.05,0.92-0.14,1.3H800.98z M814.34,438.98c0-4.83-3.08-7.6-8.45-7.6
		c-4.66,0-7.66,2.5-7.66,6.36c0,0.97,0.19,1.85,0.54,2.63h-0.53c-2.02,0-2.96-1.03-2.96-3.23c0-1.31,0.3-2.52,0.88-3.64l-2.81-0.78
		c-0.63,1.4-0.96,3.06-0.96,4.97c0,4.12,2.31,6.48,6.37,6.48h14.38C813.93,442.72,814.34,440.98,814.34,438.98 M800.93,440.36
		c-0.25-0.47-0.39-1.08-0.39-1.72c0-2.35,1.66-3.39,5.37-3.39c3.9,0,5.79,1.16,5.79,3.56c0,0.7-0.08,1.19-0.25,1.55H800.93z
		 M808.77,429.08h-8.72c-1.03,0-1.69-0.66-1.69-1.69v-2.21h11.02c1.54,0,2.32-0.85,2.32-2.52c0-0.97-0.13-1.53-0.35-2.14h-11.3
		c-1.03,0-1.69-0.67-1.69-1.69v-2.21h14.66c0.88,1.71,1.31,3.87,1.31,6.42C814.34,426.86,812.6,429.08,808.77,429.08 M814.34,407.65
		c0-4.18-3.04-6.68-8.14-6.68c-5.01,0-8.11,2.56-8.11,6.68c0,4.12,3.11,6.67,8.11,6.67C811.29,414.32,814.34,411.83,814.34,407.65
		 M800.71,407.65c0-1.89,1.78-2.81,5.43-2.81c3.79,0,5.57,0.9,5.57,2.81c0,1.94-1.72,2.8-5.57,2.8
		C802.39,410.46,800.71,409.59,800.71,407.65"/>
	<path class="st1" d="M769.76,332.99v-0.7h6.81v-1.33h-2.69c-1.28,0-2.1-0.83-2.1-2.1v-3.8h12.04v0.69c0,0.49-0.32,0.81-0.81,0.81
		h-8.7v2.08c0,0.49,0.32,0.81,0.81,0.81h8.86v0.69c0,0.49-0.32,0.81-0.81,0.81h-4.07v1.33h6.81v0.7c0,0.49-0.31,0.81-0.81,0.81
		h-14.55C770.08,333.8,769.76,333.48,769.76,332.99 M783.67,317.87c0,2.26-2.58,3.55-5.82,3.55c-3.24,0-5.82-1.29-5.82-3.55
		c0-2.27,2.58-3.56,5.82-3.56C781.08,314.31,783.67,315.61,783.67,317.87 M780.97,317.87c0-1.12-1.22-2.05-3.12-2.05
		c-1.9,0-3.12,0.93-3.12,2.05c0,1.12,1.21,2.05,3.12,2.05C779.74,319.92,780.97,318.99,780.97,317.87 M771.38,306.36h4.9
		c0.49,0,0.81,0.31,0.81,0.81v3.67h1.73c0.49,0,0.81-0.32,0.81-0.81v-3.08c0-1.28-0.83-2.1-2.1-2.1h-6.95v0.7
		C770.57,306.04,770.89,306.36,771.38,306.36 M770.57,313.59h6.86c1.9,0,3.15-0.49,3.94-1.44v1.76h1.73c0.49,0,0.81-0.32,0.81-0.81
		v-3.35h1.62c0.49,0,0.81-0.32,0.81-0.81v-0.7h-2.42v-2.59c0-0.49-0.32-0.81-0.81-0.81h-1.73v5.12c0,1.66-1.84,2.11-4.28,2.11h-2.12
		v-3.19c0-0.49-0.32-0.81-0.81-0.81h-1.73v3.99h-2.67v0.69C769.76,313.27,770.08,313.59,770.57,313.59 M780.4,361.45
		c0.49,0,0.81-0.32,0.81-0.81v-14.55c0-0.49-0.32-0.81-0.81-0.81h-1.5v4.24h-2.43v0.7c0,0.49,0.32,0.81,0.81,0.81h1.62v10.43H780.4z
		 M781.81,375.02h-9.38v0.7c0,0.49,0.31,0.81,0.81,0.81h7.33c0.49,0,0.81,0.32,0.81,0.81v3.99h1.73c0.49,0,0.81-0.32,0.81-0.81
		v-3.39C783.91,375.85,783.08,375.02,781.81,375.02 M774.53,373.82c-2.9,0-4.77-1.7-4.77-4.33c0-2.63,1.87-4.32,4.77-4.32
		c2.9,0,4.77,1.7,4.77,4.32C779.3,372.12,777.43,373.82,774.53,373.82 M774.53,372.31c1.35,0,2.23-1.11,2.23-2.82
		c0-1.71-0.88-2.82-2.23-2.82c-1.36,0-2.23,1.11-2.23,2.82C772.3,371.2,773.18,372.31,774.53,372.31 M785.53,368.77
		c0.49,0,0.81-0.32,0.81-0.81v-0.7h-2.42v-1.3c0-0.49-0.32-0.8-0.81-0.8h-1.73v9.05h1.73c0.49,0,0.81-0.32,0.81-0.81v-1.73h1.62
		c0.49,0,0.81-0.32,0.81-0.81v-0.7h-2.42v-1.41H785.53z M784.56,360.64v-14.55c0-0.49-0.32-0.81-0.81-0.81h-1.51v16.17h1.51
		C784.24,361.45,784.56,361.13,784.56,360.64 M771.03,356.12c1-0.81,1.92-1.72,2.69-2.8c0.77,1.08,1.68,1.99,2.69,2.8
		c0.4,0.32,0.85,0.3,1.2-0.01c0.31-0.28,0.56-0.51,0.56-0.51c-1.39-1.39-2.48-2.81-3.2-4.53c0.57-1.43,0.9-2.89,0.99-4.34
		c0.06-0.88-0.55-1.45-1.43-1.45h-4.44v0.7c0,0.49,0.32,0.81,0.81,0.81h2.54c-0.25,4-1.77,6.44-4.15,8.83l0.55,0.51
		C770.17,356.42,770.63,356.44,771.03,356.12 M777.85,341.64c-3.24,0-5.82-1.29-5.82-3.56c0-2.26,2.58-3.55,5.82-3.55
		c3.24,0,5.82,1.29,5.82,3.55C783.67,340.35,781.08,341.64,777.85,341.64 M780.97,338.08c0-1.12-1.22-2.05-3.12-2.05
		c-1.9,0-3.12,0.93-3.12,2.05c0,1.11,1.21,2.05,3.12,2.05C779.74,340.13,780.97,339.2,780.97,338.08"/>
</g>
<g>
	<path class="st0" d="M606.81,389.67c1.44-1.3,2.89-2.74,4.35-4.32h-1.84c-1.27,0-2.35,0.48-3.25,1.37
		c-0.37,0.37-0.75,0.73-1.12,1.07c-5.8-5.6-11.67-8.76-17.08-8.76c-4.57,0-8.93,2.21-13.33,6.26c-1.05-1.02-2.09-2.13-3.12-3.31
		c-1.67-1.91-3.73-2.95-6.26-2.95h-6.95c3.75,4.52,7.63,8.36,11.52,11.38c-1.9,2.28-3.82,4.87-5.78,7.75h1.34
		c1.27,0,2.27-0.54,2.99-1.58c1.17-1.71,2.32-3.27,3.46-4.69c5.73,4.04,11.44,6.27,16.78,6.27c4.41,0,8.66-1.49,12.9-4.28
		c0.38,0.47,0.75,0.96,1.13,1.47c1.36,1.84,3.14,2.82,5.42,2.82h5.74C611.45,394.98,609.14,392.13,606.81,389.67 M591.72,394.16
		c-4.87,0-10.16-2.57-15.38-7.18c2.9-2.54,5.77-3.91,8.81-3.91c4.6,0,9.64,3.15,14.55,8.75
		C597.08,393.34,594.46,394.16,591.72,394.16"/>
	<path class="st1" d="M670.47,389.67v7.12c0,0.84-0.54,1.38-1.38,1.38h-1.81v-9.01c0-1.26-0.69-1.89-2.06-1.89
		c-0.8,0-1.25,0.1-1.75,0.29v9.23c0,0.84-0.54,1.38-1.38,1.38h-1.8v-11.98c1.4-0.72,3.16-1.07,5.24-1.07
		C668.65,385.12,670.47,386.54,670.47,389.67 M657.8,389.67v7.76c-1.39,0.66-2.82,0.97-4.69,0.97c-3.3,0-5.27-1.46-5.27-4.02
		c0-3.55,3.62-4.86,6.96-4.71v-0.31c0-1.42-0.68-2.01-2.29-2.01c-1.43,0-2.81,0.58-3.29,0.79v-2.36c0.91-0.35,2.07-0.66,3.64-0.66
		C655.98,385.12,657.8,386.54,657.8,389.67 M654.8,391.54c-2.11,0-3.93,0.83-3.93,2.83c0,1.26,0.89,2.01,2.42,2.01
		c0.55,0,1.1-0.1,1.5-0.28V391.54z M629.71,381.91h-2.11c-0.93,0-1.64,0.38-2.15,1.15l-3.63,5.49v-6.64h-1.95
		c-0.84,0-1.38,0.54-1.38,1.38v14.88h1.95c0.84,0,1.38-0.54,1.38-1.38v-6.12l4.13,6.34c0.5,0.78,1.21,1.16,2.14,1.16h2.44
		l-5.82-8.69L629.71,381.91z M644.25,386.69l-1.83,7.14l-2.17-8.48h-1.45c-0.92,0-1.5,0.45-1.72,1.34l-1.83,7.14l-1.82-7.14
		c-0.23-0.89-0.8-1.34-1.73-1.34h-1.78l3.57,12.82h1.5c0.92,0,1.51-0.44,1.75-1.33l1.94-6.98l2.31,8.31h1.58
		c0.93,0,1.5-0.44,1.75-1.33l3.19-11.49h-1.54C645.05,385.35,644.48,385.8,644.25,386.69 M732.34,386.09v11.76
		c0,3.32-1.93,5.2-5.29,5.2c-1.56,0-2.92-0.27-4.06-0.78l0.64-2.29c0.91,0.48,1.91,0.72,2.97,0.72c1.81,0,2.64-0.77,2.64-2.42v-0.44
		c-0.63,0.29-1.35,0.44-2.14,0.44c-3.16,0-5.2-2.46-5.2-6.26c0-4.39,2.27-6.91,6.22-6.91C729.75,385.12,731.16,385.45,732.34,386.09
		 M729.24,387.47c-0.3-0.14-0.7-0.2-1.27-0.2c-1.96,0-2.91,1.55-2.91,4.74c0,3.04,0.85,4.39,2.77,4.39c0.52,0,1.02-0.11,1.41-0.32
		V387.47z M715.08,385.12c-2.09,0-3.85,0.35-5.24,1.07v11.98h1.8c0.84,0,1.38-0.54,1.38-1.38v-9.23c0.5-0.19,0.96-0.29,1.76-0.29
		c1.37,0,2.06,0.64,2.06,1.89v9.01h1.81c0.84,0,1.38-0.54,1.38-1.38v-7.12C720.02,386.54,718.2,385.12,715.08,385.12 M678.56,385.12
		c1.64,0,3.06,0.33,4.23,0.97v11.76c0,3.32-1.93,5.2-5.29,5.2c-1.56,0-2.92-0.27-4.06-0.78l0.64-2.29c0.91,0.48,1.9,0.72,2.97,0.72
		c1.8,0,2.64-0.77,2.64-2.42v-0.44c-0.63,0.29-1.36,0.44-2.15,0.44c-3.16,0-5.2-2.46-5.2-6.26
		C672.34,387.64,674.61,385.12,678.56,385.12 M679.69,387.47c-0.3-0.14-0.7-0.2-1.27-0.2c-1.96,0-2.91,1.55-2.91,4.74
		c0,3.04,0.85,4.39,2.77,4.39c0.52,0,1.02-0.11,1.41-0.32V387.47z M707.96,391.78c0,4.09-2.09,6.62-5.45,6.62
		c-3.37,0-5.46-2.54-5.46-6.62c0-4.17,2.04-6.65,5.46-6.65C705.92,385.12,707.96,387.61,707.96,391.78 M704.79,391.82
		c0-3.15-0.71-4.55-2.29-4.55c-1.57,0-2.3,1.45-2.3,4.55c0,2.98,0.75,4.44,2.3,4.44C704.09,396.26,704.79,394.89,704.79,391.82
		 M693.36,380.28h1.81v17.15c-1.28,0.64-2.8,0.97-4.53,0.97c-3.75,0-5.99-2.42-5.99-6.49c0-4.06,2.21-6.68,5.64-6.68
		c0.64,0,1.19,0.06,1.69,0.18v-3.75C691.98,380.82,692.53,380.28,693.36,380.28 M691.98,387.32c-0.32-0.08-0.67-0.12-1.07-0.12
		c-2.56,0-3.1,2.48-3.1,4.55c0,2.97,0.97,4.48,2.89,4.48c0.61,0,1-0.06,1.27-0.2V387.32z"/>
	<path class="st1" d="M642.02,415.24c-2.57,0-4.61,1.03-4.61,2.82c0,1.79,2.05,2.82,4.61,2.82c2.57,0,4.62-1.03,4.62-2.82
		C646.64,416.27,644.59,415.24,642.02,415.24 M642.02,419.69c-1.51,0-2.47-0.74-2.47-1.63c0-0.89,0.96-1.63,2.47-1.63
		c1.51,0,2.48,0.74,2.48,1.63C644.5,418.95,643.52,419.69,642.02,419.69 M643.02,413.47h5.41v0.55c0,0.39-0.25,0.64-0.64,0.64
		h-11.54c-0.39,0-0.64-0.25-0.64-0.64v-0.55h5.41v-1.05h-2.13c-1.01,0-1.67-0.65-1.67-1.66v-3.01h9.55v0.55
		c0,0.39-0.25,0.64-0.64,0.64h-6.9v1.65c0,0.39,0.25,0.64,0.64,0.64h7.03v0.55c0,0.39-0.25,0.64-0.64,0.64h-3.23V413.47z
		 M653.84,412.34c0.57,1.36,1.43,2.49,2.54,3.59c0,0-0.2,0.18-0.44,0.4c-0.27,0.25-0.63,0.26-0.95,0.01
		c-0.8-0.64-1.52-1.36-2.13-2.21c-0.61,0.85-1.33,1.58-2.13,2.21c-0.32,0.25-0.68,0.24-0.95-0.01l-0.44-0.4
		c1.89-1.89,3.09-3.82,3.29-7h-2.01c-0.39,0-0.64-0.25-0.64-0.64v-0.55h3.52c0.7,0,1.18,0.45,1.13,1.15
		C654.55,410.04,654.29,411.21,653.84,412.34 M658.79,408.38v11.54c0,0.39-0.25,0.64-0.64,0.64h-1.19v-8.27h-1.28
		c-0.39,0-0.64-0.25-0.64-0.64v-0.55h1.92v-3.36h1.19C658.54,407.74,658.79,407.99,658.79,408.38 M628.18,415.24
		c-2.57,0-4.62,1.03-4.62,2.82c0,1.79,2.04,2.82,4.62,2.82c2.57,0,4.61-1.03,4.61-2.82C632.79,416.27,630.74,415.24,628.18,415.24
		 M628.18,419.69c-1.51,0-2.47-0.74-2.47-1.63c0-0.89,0.96-1.63,2.47-1.63c1.5,0,2.47,0.74,2.47,1.63
		C630.65,418.95,629.68,419.69,628.18,419.69 M622.41,408.29v-0.55h5.51c1.01,0,1.66,0.65,1.66,1.67v2.43
		c0,0.39-0.25,0.64-0.64,0.64h-1.37v-2.91c0-0.39-0.25-0.64-0.65-0.64h-3.88C622.66,408.93,622.41,408.68,622.41,408.29
		 M686.09,408.93h-5.8c-0.39,0-0.64-0.25-0.64-0.64v-0.55h7.42c1,0,1.5,0.63,1.11,1.57c-0.29,0.69-0.78,1.31-1.44,1.87
		c0.84,0.57,1.84,1.1,2.98,1.58l-0.3,0.51c-0.19,0.33-0.51,0.45-0.9,0.31c-1.15-0.41-2.24-0.9-3.2-1.46
		c-1.45,0.79-3.29,1.35-5.29,1.63c-0.5,0.07-0.82-0.1-0.92-0.48c-0.09-0.32-0.16-0.58-0.16-0.58
		C682.75,412.15,685.08,410.82,686.09,408.93 M707.4,408.16v-0.55h3.98c0.39,0,0.64,0.25,0.64,0.64v0.55h-3.97
		C707.65,408.8,707.4,408.55,707.4,408.16 M632.98,410.43h1.92v0.55c0,0.39-0.25,0.64-0.64,0.64h-1.29v2.65
		c0,0.39-0.25,0.64-0.64,0.64h-1.37v-1.4c-0.63,0.75-1.61,1.14-3.12,1.14h-5.44c-0.39,0-0.64-0.25-0.64-0.64v-0.55h2.12v-3.17h1.37
		c0.39,0,0.64,0.25,0.64,0.64v2.52h1.69c1.94,0,3.39-0.36,3.39-1.67v-4.06h1.37c0.39,0,0.64,0.25,0.64,0.64V410.43z M674.78,409.41
		h1.92v0.55c0,0.39-0.25,0.64-0.64,0.64h-1.28v1.12h1.92v0.55c0,0.39-0.25,0.64-0.64,0.64h-1.28v1.37c0,0.39-0.25,0.64-0.64,0.64
		h-1.37v-7.18h1.37c0.39,0,0.64,0.25,0.64,0.64V409.41z M661.44,408.38v11.54c0,0.39-0.25,0.64-0.64,0.64h-1.19v-12.82h1.19
		C661.19,407.74,661.44,407.99,661.44,408.38 M702.98,408.38v5.89c0,0.39-0.25,0.64-0.64,0.64h-1.37v-7.18h1.37
		C702.73,407.74,702.98,407.99,702.98,408.38 M732.34,411.58v0.55c0,0.39-0.25,0.64-0.64,0.64h-1.28v7.14
		c0,0.39-0.25,0.64-0.64,0.64h-1.37v-12.82h1.37c0.39,0,0.64,0.25,0.64,0.64v3.2H732.34z M727.1,417.19l-0.26,0.45
		c-0.19,0.33-0.55,0.46-0.9,0.28c-1.22-0.66-2.3-1.64-2.99-2.84c-0.69,1.2-1.78,2.18-2.99,2.84c-0.34,0.18-0.71,0.05-0.9-0.28
		l-0.26-0.45c2.05-1.5,3.14-3.31,3.14-6.04v-3.4h1.37c0.39,0,0.64,0.3,0.64,0.76v2.64C723.96,413.88,725.06,415.69,727.1,417.19
		 M702.98,417.23v2.69c0,0.39-0.25,0.64-0.64,0.64h-1.37v-3.17c0-0.39-0.25-0.64-0.64-0.64h-5.81c-0.39,0-0.64-0.25-0.64-0.64v-0.55
		h7.43C702.32,415.56,702.98,416.21,702.98,417.23 M716.18,407.74h-1.37v7.55c0,1.31-1.46,1.67-3.39,1.67h-0.64v-1.27
		c1.32-0.33,2.14-1.34,2.14-2.77c0-0.91-0.34-1.66-0.93-2.16h1.79v-0.55c0-0.39-0.25-0.64-0.64-0.64h-7.53v0.55
		c0,0.39,0.25,0.64,0.64,0.64h1.32c-0.59,0.5-0.93,1.25-0.93,2.16c0,1.42,0.81,2.44,2.13,2.77v1.27h-3.16v0.55
		c0,0.39,0.25,0.64,0.64,0.64h5.44c1.51,0,2.5-0.39,3.12-1.14v3.54h1.37c0.39,0,0.64-0.25,0.64-0.64v-11.54
		C716.82,407.99,716.57,407.74,716.18,407.74 M709.77,414.69c-0.72,0-1.19-0.69-1.19-1.76c0-1.07,0.47-1.75,1.19-1.75
		c0.72,0,1.2,0.69,1.2,1.75C710.97,414,710.5,414.69,709.77,414.69 M671.12,411.17c0-2.08-1.49-3.43-3.78-3.43
		c-2.3,0-3.78,1.35-3.78,3.43c0,2.08,1.49,3.43,3.78,3.43C669.64,414.6,671.12,413.25,671.12,411.17 M665.57,411.17
		c0-1.36,0.69-2.24,1.77-2.24c1.08,0,1.77,0.88,1.77,2.24c0,1.36-0.69,2.24-1.77,2.24C666.26,413.41,665.57,412.53,665.57,411.17
		 M674.78,417.23v2.69c0,0.39-0.25,0.64-0.64,0.64h-1.37v-3.17c0-0.39-0.25-0.64-0.64-0.64h-5.81c-0.39,0-0.64-0.25-0.64-0.64v-0.55
		h7.44C674.12,415.56,674.78,416.21,674.78,417.23 M690.73,415.04L690.73,415.04v0.55c0,0.39-0.25,0.64-0.64,0.64h-4.76v3.68
		c0,0.39-0.25,0.64-0.64,0.64h-1.37v-4.32h-4.76c-0.39,0-0.64-0.25-0.64-0.64v-0.55H690.73z M692.37,414.5
		c-0.37,0.12-0.71-0.07-0.84-0.44l-0.15-0.41c1.73-0.72,3.14-2.34,3.14-4.52v-1.39h1.37c0.39,0,0.64,0.25,0.64,0.64v0.74
		c0,2.18,1.41,3.8,3.14,4.52l-0.15,0.41c-0.13,0.36-0.47,0.56-0.84,0.44c-1.26-0.4-2.43-1.22-3.16-2.3
		C694.8,413.27,693.63,414.09,692.37,414.5"/>
</g>
<g>
	<path class="st0" d="M606.81,448.57c1.44-1.3,2.89-2.74,4.35-4.31h-1.84c-1.27,0-2.35,0.48-3.25,1.37
		c-0.37,0.37-0.75,0.73-1.12,1.07c-5.8-5.6-11.67-8.76-17.08-8.76c-4.57,0-8.93,2.2-13.33,6.26c-1.05-1.02-2.09-2.13-3.12-3.31
		c-1.67-1.91-3.73-2.95-6.26-2.95h-6.95c3.75,4.52,7.63,8.35,11.52,11.38c-1.9,2.28-3.82,4.88-5.78,7.75h1.34
		c1.27,0,2.27-0.54,2.99-1.59c1.17-1.71,2.32-3.28,3.46-4.68c5.73,4.04,11.44,6.27,16.78,6.27c4.41,0,8.66-1.49,12.9-4.29
		c0.38,0.47,0.75,0.97,1.12,1.47c1.36,1.83,3.14,2.82,5.42,2.82h5.74C611.45,453.89,609.14,451.04,606.81,448.57 M591.72,453.06
		c-4.87,0-10.16-2.56-15.38-7.18c2.9-2.54,5.77-3.91,8.81-3.91c4.6,0,9.64,3.15,14.55,8.75
		C597.08,452.25,594.46,453.06,591.72,453.06"/>
	<path class="st1" d="M670.47,448.57v7.12c0,0.84-0.54,1.38-1.38,1.38h-1.81v-9.01c0-1.26-0.69-1.89-2.06-1.89
		c-0.8,0-1.25,0.1-1.75,0.29v9.23c0,0.84-0.54,1.38-1.38,1.38h-1.8V445.1c1.4-0.72,3.16-1.07,5.25-1.07
		C668.65,444.03,670.47,445.44,670.47,448.57 M657.8,448.57v7.76c-1.38,0.66-2.82,0.97-4.68,0.97c-3.3,0-5.27-1.46-5.27-4.02
		c0-3.54,3.62-4.86,6.96-4.71v-0.3c0-1.41-0.69-2.01-2.29-2.01c-1.43,0-2.81,0.58-3.29,0.79v-2.36c0.91-0.35,2.07-0.66,3.64-0.66
		C655.99,444.03,657.8,445.44,657.8,448.57 M654.8,450.45c-2.12,0-3.93,0.83-3.93,2.83c0,1.26,0.89,2.02,2.42,2.02
		c0.55,0,1.1-0.1,1.51-0.28V450.45z M629.71,440.81h-2.12c-0.93,0-1.64,0.38-2.15,1.15l-3.63,5.48v-6.63h-1.96
		c-0.84,0-1.38,0.54-1.38,1.38v14.88h1.95c0.84,0,1.38-0.54,1.38-1.38v-6.12l4.12,6.34c0.5,0.77,1.21,1.16,2.14,1.16h2.44l-5.82-8.7
		L629.71,440.81z M644.25,445.6l-1.82,7.14l-2.17-8.48h-1.45c-0.92,0-1.49,0.44-1.72,1.34l-1.82,7.14l-1.83-7.14
		c-0.23-0.89-0.8-1.34-1.73-1.34h-1.78l3.57,12.82h1.49c0.92,0,1.5-0.44,1.75-1.33l1.94-6.98l2.31,8.31h1.58
		c0.92,0,1.5-0.44,1.75-1.33l3.2-11.49h-1.54C645.05,444.26,644.48,444.7,644.25,445.6 M732.34,445v11.75c0,3.32-1.93,5.2-5.29,5.2
		c-1.56,0-2.92-0.27-4.06-0.78l0.64-2.29c0.91,0.48,1.9,0.72,2.97,0.72c1.8,0,2.64-0.77,2.64-2.41v-0.44
		c-0.63,0.29-1.35,0.45-2.14,0.45c-3.16,0-5.2-2.46-5.2-6.26c0-4.39,2.27-6.91,6.21-6.91C729.75,444.03,731.17,444.36,732.34,445
		 M729.24,446.38c-0.3-0.14-0.7-0.21-1.27-0.21c-1.96,0-2.91,1.55-2.91,4.73c0,3.04,0.86,4.39,2.77,4.39c0.52,0,1.02-0.11,1.41-0.32
		V446.38z M715.08,444.03c-2.08,0-3.85,0.35-5.24,1.07v11.98h1.81c0.84,0,1.38-0.54,1.38-1.38v-9.23c0.5-0.19,0.96-0.29,1.75-0.29
		c1.37,0,2.06,0.64,2.06,1.89v9.01h1.81c0.84,0,1.38-0.54,1.38-1.38v-7.12C720.02,445.44,718.2,444.03,715.08,444.03 M678.56,444.03
		c1.64,0,3.06,0.33,4.23,0.97v11.75c0,3.32-1.93,5.2-5.29,5.2c-1.56,0-2.92-0.27-4.06-0.78l0.64-2.29c0.91,0.48,1.9,0.72,2.97,0.72
		c1.8,0,2.64-0.77,2.64-2.41v-0.44c-0.63,0.29-1.35,0.45-2.14,0.45c-3.16,0-5.2-2.46-5.2-6.26
		C672.34,446.54,674.61,444.03,678.56,444.03 M679.68,446.38c-0.3-0.14-0.69-0.21-1.27-0.21c-1.96,0-2.91,1.55-2.91,4.73
		c0,3.04,0.85,4.39,2.77,4.39c0.52,0,1.02-0.11,1.4-0.32V446.38z M707.96,450.68c0,4.09-2.09,6.63-5.45,6.63
		c-3.37,0-5.46-2.54-5.46-6.63c0-4.17,2.04-6.65,5.46-6.65C705.92,444.03,707.96,446.51,707.96,450.68 M704.8,450.73
		c0-3.15-0.71-4.55-2.29-4.55c-1.57,0-2.3,1.45-2.3,4.55c0,2.98,0.75,4.43,2.3,4.43C704.09,455.16,704.8,453.79,704.8,450.73
		 M693.36,439.19h1.81v17.15c-1.29,0.63-2.8,0.97-4.53,0.97c-3.75,0-5.99-2.43-5.99-6.49c0-4.06,2.21-6.68,5.64-6.68
		c0.64,0,1.2,0.06,1.69,0.17v-3.74C691.98,439.73,692.53,439.19,693.36,439.19 M691.98,446.22c-0.32-0.08-0.67-0.12-1.06-0.12
		c-2.56,0-3.1,2.48-3.1,4.55c0,2.97,0.97,4.48,2.89,4.48c0.61,0,1-0.06,1.27-0.2V446.22z"/>
	<path class="st1" d="M677.19,472.38h5.4v0.55c0,0.39-0.25,0.64-0.64,0.64h-11.54c-0.39,0-0.64-0.25-0.64-0.64v-0.55h5.4v-1.05
		h-2.13c-1.01,0-1.66-0.66-1.66-1.67v-3.01h9.55v0.55c0,0.39-0.25,0.64-0.64,0.64h-6.9v1.66c0,0.39,0.25,0.64,0.64,0.64h7.02v0.55
		c0,0.39-0.25,0.64-0.64,0.64h-3.22V472.38z M680.8,476.97c0,1.79-2.05,2.82-4.62,2.82c-2.57,0-4.62-1.03-4.62-2.82
		c0-1.8,2.05-2.82,4.62-2.82C678.75,474.14,680.8,475.17,680.8,476.97 M678.66,476.97c0-0.89-0.97-1.63-2.47-1.63
		c-1.51,0-2.47,0.74-2.47,1.63c0,0.88,0.96,1.62,2.47,1.62C677.69,478.59,678.66,477.85,678.66,476.97 M667.15,467.28
		c0-0.39-0.25-0.64-0.64-0.64h-1.37v4.06c0,1.31-1.46,1.67-3.39,1.67h-1.68v-2.53c0-0.39-0.25-0.64-0.64-0.64h-1.37v3.17h-2.12v0.55
		c0,0.39,0.25,0.64,0.64,0.64h5.44c1.52,0,2.5-0.39,3.12-1.14v1.39h1.37c0.39,0,0.64-0.25,0.64-0.64v-2.66h1.28
		c0.39,0,0.64-0.25,0.64-0.64v-0.55h-1.92V467.28z M717.34,471.59c0,0,0.07,0.26,0.16,0.58c0.1,0.38,0.41,0.55,0.91,0.48
		c2.01-0.28,3.85-0.84,5.3-1.63c0.96,0.56,2.05,1.06,3.2,1.46c0.4,0.14,0.72,0.02,0.91-0.31l0.3-0.51
		c-1.14-0.49-2.14-1.02-2.99-1.58c0.66-0.55,1.16-1.18,1.44-1.87c0.39-0.94-0.11-1.57-1.11-1.57h-7.42v0.55
		c0,0.39,0.25,0.64,0.64,0.64h5.8C723.48,469.73,721.14,471.06,717.34,471.59 M657.21,467.84h3.88c0.39,0,0.64,0.25,0.64,0.64v2.91
		h1.37c0.39,0,0.64-0.25,0.64-0.64v-2.44c0-1.01-0.65-1.66-1.67-1.66h-5.51v0.55C656.57,467.58,656.82,467.84,657.21,467.84
		 M666.96,476.97c0,1.79-2.05,2.82-4.62,2.82s-4.61-1.03-4.61-2.82c0-1.8,2.04-2.82,4.61-2.82S666.96,475.17,666.96,476.97
		 M664.82,476.97c0-0.89-0.97-1.63-2.48-1.63c-1.51,0-2.47,0.74-2.47,1.63c0,0.88,0.96,1.62,2.47,1.62
		C663.84,478.59,664.82,477.85,664.82,476.97 M688.79,467.8c0.05-0.7-0.44-1.15-1.14-1.15h-3.52v0.55c0,0.39,0.25,0.64,0.64,0.64
		h2.01c-0.2,3.17-1.4,5.11-3.29,7l0.43,0.4c0.28,0.25,0.64,0.26,0.96,0.01c0.8-0.64,1.52-1.37,2.13-2.22
		c0.61,0.85,1.33,1.58,2.13,2.22c0.31,0.25,0.68,0.24,0.95-0.01c0.24-0.22,0.44-0.4,0.44-0.4c-1.1-1.1-1.96-2.23-2.53-3.6
		C688.46,470.11,688.71,468.95,688.79,467.8 M729.13,473.95L729.13,473.95h-12.82v0.55c0,0.39,0.25,0.64,0.64,0.64h4.76v4.32h1.37
		c0.39,0,0.64-0.25,0.64-0.64v-3.68h4.76c0.39,0,0.64-0.25,0.64-0.64V473.95z M716.48,466.64h-0.91c-0.23,0-0.47,0.12-0.6,0.31
		c-1.18,1.74-1.86,3.84-1.86,6.09c0,2.26,0.69,4.36,1.86,6.1c0.13,0.19,0.37,0.32,0.6,0.32h0.91c-1.16-1.86-1.82-4.06-1.82-6.41
		C714.66,470.7,715.32,468.51,716.48,466.64 M708.94,467.28c0-0.39-0.25-0.64-0.64-0.64h-1.37v7.18h1.37c0.39,0,0.64-0.25,0.64-0.64
		v-1.37h1.28c0.39,0,0.64-0.25,0.64-0.64v-0.55h-1.92v-1.12h1.28c0.39,0,0.64-0.25,0.64-0.64v-0.55h-1.92V467.28z M730.48,466.96
		c-0.13-0.19-0.37-0.31-0.61-0.31h-0.9c1.16,1.86,1.82,4.06,1.82,6.41c0,2.35-0.67,4.55-1.82,6.41h0.9c0.23,0,0.47-0.12,0.61-0.32
		c1.17-1.74,1.86-3.83,1.86-6.1C732.34,470.8,731.65,468.7,730.48,466.96 M694.97,466.64h-1.19v12.82h1.19
		c0.39,0,0.64-0.25,0.64-0.64v-11.54C695.61,466.9,695.36,466.64,694.97,466.64 M692.31,466.64h-1.19V470h-1.92v0.55
		c0,0.39,0.25,0.64,0.64,0.64h1.28v8.27h1.19c0.39,0,0.64-0.25,0.64-0.64v-11.54C692.95,466.9,692.7,466.64,692.31,466.64
		 M701.51,473.51c-2.3,0-3.78-1.35-3.78-3.43c0-2.08,1.48-3.43,3.78-3.43c2.29,0,3.78,1.35,3.78,3.43
		C705.29,472.16,703.8,473.51,701.51,473.51 M701.51,472.31c1.07,0,1.77-0.88,1.77-2.24s-0.7-2.24-1.77-2.24
		c-1.08,0-1.77,0.88-1.77,2.24S700.43,472.31,701.51,472.31 M707.27,474.47h-7.44v0.55c0,0.39,0.25,0.64,0.64,0.64h5.81
		c0.39,0,0.64,0.25,0.64,0.64v3.17h1.37c0.39,0,0.64-0.25,0.64-0.64v-2.69C708.94,475.12,708.29,474.47,707.27,474.47"/>
</g>
<text transform="matrix(1 0 0 1 550.5229 191.1396)"><tspan x="0" y="0" style="fill:#999999; font-family:'NanumGothicBold'; font-size:16.8955px;">S</tspan><tspan x="9.02" y="0" style="fill:#999999; font-family:'NanumGothicBold'; font-size:16.8955px;">e</tspan><tspan x="18.01" y="0" style="fill:#999999; font-family:'NanumGothicBold'; font-size:16.8955px;">c</tspan><tspan x="25.73" y="0" style="fill:#999999; font-family:'NanumGothicBold'; font-size:16.8955px;">o</tspan><tspan x="35.6" y="0" style="fill:#999999; font-family:'NanumGothicBold'; font-size:16.8955px;">n</tspan><tspan x="45.38" y="0" style="fill:#999999; font-family:'NanumGothicBold'; font-size:16.8955px;">d</tspan><tspan x="55.21" y="0" style="fill:#999999; font-family:'NanumGothicBold'; font-size:16.8955px;">a</tspan><tspan x="63.88" y="0" style="fill:#999999; font-family:'NanumGothicBold'; font-size:16.8955px;">r</tspan><tspan x="70.44" y="0" style="fill:#999999; font-family:'NanumGothicBold'; font-size:16.8955px;">y</tspan><tspan x="78.12" y="0" style="fill:#999999; font-family:'NanumGothicBold'; font-size:16.8955px;"> </tspan><tspan x="82.69" y="0" style="fill:#999999; font-family:'NanumGothicBold'; font-size:16.8955px;">S</tspan><tspan x="91.52" y="0" style="fill:#999999; font-family:'NanumGothicBold'; font-size:16.8955px;">i</tspan><tspan x="95.27" y="0" style="fill:#999999; font-family:'NanumGothicBold'; font-size:16.8955px;">g</tspan><tspan x="105" y="0" style="fill:#999999; font-family:'NanumGothicBold'; font-size:16.8955px;">n</tspan><tspan x="114.77" y="0" style="fill:#999999; font-family:'NanumGothicBold'; font-size:16.8955px;">a</tspan><tspan x="123.59" y="0" style="fill:#999999; font-family:'NanumGothicBold'; font-size:16.8955px;">t</tspan><tspan x="129.3" y="0" style="fill:#999999; font-family:'NanumGothicBold'; font-size:16.8955px;">u</tspan><tspan x="138.96" y="0" style="fill:#999999; font-family:'NanumGothicBold'; font-size:16.8955px;">r</tspan><tspan x="144.93" y="0" style="fill:#999999; font-family:'NanumGothicBold'; font-size:16.8955px;">e</tspan></text>
</svg>
