<?xml version="1.0" encoding="utf-8"?>
<!-- Generator: Adobe Illustrator 25.2.1, SVG Export Plug-In . SVG Version: 6.00 Build 0)  -->
<svg version="1.1" id="Layer_1" xmlns="http://www.w3.org/2000/svg" xmlns:xlink="http://www.w3.org/1999/xlink" x="0px" y="0px"
	 viewBox="0 0 204.03 119.35" style="enable-background:new 0 0 204.03 119.35;" xml:space="preserve">
<style type="text/css">
	.st0{fill:#F8C7BC;}
	.st1{fill:#F19290;}
	.st2{fill:#93C01E;}
</style>
<path class="st0" d="M105.58,64.73c-0.76,0-1.52-0.28-2.19-0.82c-1.09-0.89-3.42-1.22-4.15-1.26c-11.55-0.29-16.75-3.3-16.96-3.43
	c-0.14-0.07-17.3-9.78-13.17-25.04c4.18-15.47,18.16-12.99,18.3-12.97c0.71,0.11,1.39,0.23,2.04,0.38c0.25-0.98,0.68-1.77,0.75-1.89
	c0.06-0.11,0.14-0.21,0.22-0.3c2.48-2.59,5.63-3.96,9.19-3.92c5.76,0.03,11.08,3.53,14.15,6.8c5.51,5.87,6.64,18.83,2.23,25.67
	c-6.01,9.33-6.87,11.85-6.86,12.51c0.13,1.58-0.73,3.19-2.08,3.9C106.59,64.6,106.09,64.73,105.58,64.73z"/>
<g>
	<g>
		<g>
			<path class="st1" d="M4.07,114.81V73.03h15.85c4.06,0,6.95,0.84,8.64,2.52c1.7,1.68,2.54,4.18,2.54,7.5v8.59
				c0,6.96-4.05,10.45-12.14,10.45H7.94v12.72H4.07z M25.51,78.04c-1.22-1.22-3.24-1.83-6.07-1.83H7.94V98.9h10.5
				c1.94,0,3.53-0.2,4.77-0.61s2.15-1.02,2.73-1.86c0.58-0.83,0.96-1.68,1.14-2.54s0.27-1.97,0.27-3.31v-7
				C27.34,81.11,26.73,79.26,25.51,78.04z"/>
			<path class="st1" d="M56.34,108.84c-0.42,1.15-1.04,2.26-1.86,3.34s-1.94,1.96-3.39,2.65c-1.45,0.69-3.11,1.05-4.98,1.09
				c-3.85,0.07-6.88-0.98-9.07-3.15c-2.19-2.17-3.29-5.26-3.29-9.25V93.28c0-3.99,1.03-7.05,3.1-9.17c2.07-2.12,4.92-3.18,8.56-3.18
				c3.5,0,6.3,1.03,8.4,3.08c2.1,2.05,3.15,4.91,3.15,8.59v8.75H37.63v2.54c0,3.11,0.72,5.35,2.17,6.71
				c1.45,1.36,3.5,2.01,6.15,1.94c4.56-0.11,6.98-2.49,7.26-7.16h3.82C57,106.54,56.77,107.7,56.34,108.84z M53.11,97.95v-4.88
				c0-3-0.71-5.21-2.12-6.63c-1.41-1.41-3.27-2.12-5.57-2.12c-2.47,0-4.39,0.7-5.75,2.09c-1.36,1.4-2.04,3.46-2.04,6.18v5.35H53.11z
				"/>
			<path class="st1" d="M63.13,84.11c1.98-1.94,4.42-2.99,7.32-3.13c3.43-0.18,6.24,0.53,8.43,2.12v-1.54h3.92v33.24h-3.87v-2.33
				c-0.67,0.95-1.71,1.76-3.1,2.41c-1.4,0.65-2.91,1-4.53,1.03c-3.25,0.11-5.92-0.91-8.01-3.05c-2.09-2.14-3.13-4.82-3.13-8.03
				v-13.2C60.16,88.57,61.15,86.06,63.13,84.11z M66.12,110.59c1.4,1.4,3.19,2.06,5.38,1.99c2.08-0.07,3.82-0.79,5.2-2.17
				c1.38-1.38,2.07-3.02,2.07-4.93V90.53c0-2.12-0.74-3.68-2.23-4.69c-1.49-1.01-3.23-1.49-5.25-1.46c-2.3,0.04-4.08,0.72-5.36,2.07
				c-1.27,1.34-1.91,3.16-1.91,5.46v13.04C64.03,107.32,64.73,109.2,66.12,110.59z"/>
			<path class="st1" d="M106.87,112.79c-1.94,1.94-4.54,2.99-7.79,3.13c-3.61,0.18-6.6-0.76-8.99-2.81s-3.58-4.82-3.58-8.32V92.38
				c0-3.32,1.03-6.05,3.1-8.19c2.07-2.14,4.94-3.21,8.62-3.21c3.53,0,6.25,0.94,8.14,2.81c1.89,1.87,2.92,4.53,3.1,7.95h-3.82
				c-0.42-4.77-2.78-7.21-7.05-7.32c-2.54-0.07-4.55,0.58-6.02,1.96c-1.47,1.38-2.2,3.46-2.2,6.26v12.14c0,2.72,0.83,4.72,2.49,5.99
				c1.66,1.27,3.67,1.84,6.04,1.7c4.52-0.28,6.96-2.62,7.32-7h3.71C109.84,108.41,108.81,110.85,106.87,112.79z"/>
			<path class="st1" d="M112.91,114.81V73.03h3.87v11.66c1.91-2.44,4.6-3.73,8.06-3.87c3.5-0.14,6.19,0.79,8.06,2.81
				c1.87,2.01,2.81,4.65,2.81,7.9v23.27h-3.87v-22.8c0-2.54-0.66-4.48-1.96-5.8c-1.31-1.33-3-1.97-5.09-1.94
				c-2.05,0.04-3.9,0.82-5.54,2.36c-1.64,1.54-2.47,3.47-2.47,5.81v22.37H112.91z"/>
			<path class="st1" d="M166.83,73.35c-1.66-0.25-2.86,0.02-3.61,0.8s-1.11,2.05-1.11,3.82v5.57h9.01v3.23h-9.01v28.05h-3.87V86.76
				h-6.63v-3.23h6.63V77.7c0-2.76,0.62-4.75,1.86-5.99c1.24-1.24,3.16-1.8,5.78-1.7c2.58,0.11,4.7,0.72,6.36,1.86l-1.06,2.92
				C169.66,74.04,168.21,73.56,166.83,73.35z"/>
			<path class="st1" d="M174.78,77.48v-5.99h4.88v5.99H174.78z M175.26,114.81V81.67h3.87v33.14H175.26z"/>
			<path class="st1" d="M194.88,115.98c-2.4,0.14-4.18-0.3-5.33-1.33c-1.15-1.03-1.72-2.7-1.72-5.04V86.39h-6.63v-3.23h6.63V72.18
				h3.87v10.97h8.27v3.23h-8.27v22.69c0,1.38,0.23,2.35,0.69,2.92c0.46,0.56,1.25,0.83,2.39,0.79c1.41-0.04,2.92-0.57,4.51-1.59
				l0.58,3.13C198.48,115.32,196.82,115.87,194.88,115.98z"/>
		</g>
	</g>
	<g>
		<path class="st1" d="M106.65,68.87c-9.47,3.45-7.89,9.52-7.89,9.52S105.03,78.82,106.65,68.87z"/>
		<path class="st1" d="M89.8,70.62c2.18,8.57,7.71,7.31,7.71,7.31S98.47,72.34,89.8,70.62z"/>
	</g>
</g>
<g>
	<path class="st2" d="M92.65,0c-10.36,11.5-3.83,18.59-3.83,18.59S97.61,14.66,92.65,0z"/>
	<path class="st2" d="M71.06,14.52c9.13,10.04,15.73,4.35,15.73,4.35S84.06,10.6,71.06,14.52z"/>
	<path class="st1" d="M105.52,64.95c-0.76,0-1.53-0.28-2.2-0.83c-1.09-0.89-3.43-1.22-4.17-1.27c-11.6-0.29-16.83-3.31-17.04-3.44
		c-0.14-0.07-17.38-9.82-13.23-25.16c4.2-15.54,18.25-13.05,18.39-13.03c0.71,0.11,1.39,0.23,2.05,0.38
		c0.25-0.98,0.69-1.78,0.76-1.9c0.06-0.11,0.14-0.21,0.22-0.3c2.49-2.6,5.66-3.98,9.24-3.94c5.78,0.03,11.13,3.55,14.21,6.83
		c5.54,5.9,6.67,18.92,2.25,25.79c-6.04,9.38-6.91,11.9-6.89,12.57c0.13,1.59-0.73,3.2-2.09,3.91
		C106.53,64.83,106.03,64.95,105.52,64.95z M84.83,24.03c-3.43,0-10.43,1.25-13.07,11.01c-3.54,13.1,11.68,21.7,11.83,21.78
		c0.08,0.05,4.91,2.78,15.69,3.05c0.44,0.03,3.9,0.29,5.93,1.94c0.25,0.21,0.35,0.16,0.41,0.12c0.26-0.14,0.53-0.6,0.5-1.03
		c-0.13-1.6,1.07-4.67,7.35-14.42c3.73-5.79,2.75-17.17-1.91-22.13c-3.34-3.55-8.06-5.86-12.05-5.88c-0.02,0-0.04,0-0.06,0
		c-2.66,0-4.97,0.97-6.86,2.87c-0.13,0.26-0.3,0.68-0.39,1.07c17.42,5.83,14.86,25.56,14.82,25.77c-0.12,0.82-0.87,1.39-1.69,1.27
		c-0.82-0.12-1.39-0.87-1.27-1.69c0.12-0.86,2.61-20.54-17.3-23.58C86.63,24.16,85.91,24.03,84.83,24.03z"/>
</g>
</svg>
